<svg width="148" height="67" viewBox="0 0 148 67" fill="none" xmlns="http://www.w3.org/2000/svg">
<g clip-path="url(#clip0_5_913)">
<path d="M88.6315 12.5598L78.9375 19.453H101.734L92.9402 12.5598H88.6315ZM91.7722 34.4196L80.5115 41.3107H103.306L91.7708 34.4196H91.7722Z" stroke="#A7A9AD" stroke-width="0.8" stroke-miterlimit="2.613"/>
<path d="M8.56435 19.453L43.031 12.5598H111.606L141.048 19.453H8.56435ZM2.46164 19.453L0.666016 21.2649H147.333L145.357 19.453H2.46164Z" stroke="#A7A9AD" stroke-width="0.8" stroke-miterlimit="2.613"/>
<path d="M136.289 18.4738V19.3971V18.4738ZM3.18321 21.2658L2.82227 23.2616H145.718V21.2658H3.18321ZM24.0359 16.2231V19.3981V16.2231ZM27.3718 15.5041V19.3981V15.5041ZM30.7097 14.8886V19.1939V14.8886ZM33.95 14.07V19.4996V14.07ZM37.2879 13.353V19.3971V13.353ZM40.4327 12.7385V19.6022V12.7385ZM43.7707 12.5323V19.4986V12.5323ZM46.5616 12.708V19.6753V12.708ZM49.4018 12.6349V19.4986V12.6349ZM52.9448 12.6349V19.396V12.6349ZM56.3883 12.6349V19.396V12.6349ZM59.8317 12.6349V19.396V12.6349ZM63.2731 12.6349V19.4986V12.6349ZM66.7167 12.6349V19.396V12.6349ZM70.2627 12.5323V19.4986V12.5323ZM73.8053 12.5323V19.4986V12.5323ZM77.2487 12.5323V19.396V12.5323ZM80.6927 12.5323V18.2697V12.5323ZM84.2353 12.6349V15.7072V12.6349ZM97.9087 12.6349V16.5268V12.6349ZM101.35 12.5312V19.1919V12.5312ZM104.896 12.6339V19.6012V12.6339ZM108.339 12.6339V19.2924V12.6339ZM111.58 12.6339V19.4976V12.6339ZM115.023 13.4515V19.395V13.4515ZM118.771 14.2721V19.4986V14.2721ZM122.214 15.0927V19.4986V15.0927ZM125.757 16.015V19.396V16.015ZM129.2 16.733V19.396V16.733ZM132.746 17.5526V19.2934V17.5526Z" stroke="#A7A9AD" stroke-width="0.8" stroke-miterlimit="2.613"/>
<path fill-rule="evenodd" clip-rule="evenodd" d="M3.71875 23.2608V24.4653L144.459 24.2236L144.28 23.2598L3.71875 23.2608Z" stroke="#A7A9AD" stroke-width="0.8" stroke-miterlimit="2.613"/>
<path d="M20.7913 16.9423V19.4022V16.9423ZM14.4041 18.1682L14.3086 19.3972L14.4041 18.1682ZM17.4565 17.5537V19.3972V17.5537Z" stroke="#A7A9AD" stroke-width="0.8" stroke-miterlimit="2.613"/>
<path fill-rule="evenodd" clip-rule="evenodd" d="M9.46644 40.2999V31.2607C9.19898 31.0575 8.93151 30.8656 8.66211 30.6685C9.11351 28.1396 11.9708 27.4937 13.4749 27.2794L14.1274 26.4729L14.7306 27.3332C15.7547 27.344 16.7558 27.6411 17.6229 28.1917C18.49 28.7422 19.1892 29.5247 19.6429 30.4522L18.7893 31.152V40.1912L19.4418 40.5132V41.6974L18.537 42.0214V42.774H9.51264V42.0742L8.76264 41.7503V40.6219L9.46644 40.2979V40.2999Z" stroke="#A7A9AD" stroke-width="0.8" stroke-miterlimit="2.613"/>
<path d="M9.25977 41.0535H18.8843" stroke="#A7A9AD" stroke-width="0.8" stroke-miterlimit="2.613"/>
<path fill-rule="evenodd" clip-rule="evenodd" d="M9.99414 32.1404H11.085V40.4534H9.99414V32.1404Z" stroke="#A7A9AD" stroke-width="0.8" stroke-miterlimit="2.613"/>
<path fill-rule="evenodd" clip-rule="evenodd" d="M17.1115 32.1404H18.1983V40.4534H17.1074V32.1404H17.1115Z" stroke="#A7A9AD" stroke-width="0.8" stroke-miterlimit="2.613"/>
<path fill-rule="evenodd" clip-rule="evenodd" d="M9.48047 30.5996H11.5465V31.6457H9.48047V30.5996Z" stroke="#A7A9AD" stroke-width="0.8" stroke-miterlimit="2.613"/>
<path fill-rule="evenodd" clip-rule="evenodd" d="M16.5957 30.5996H18.6618V31.6457H16.5957V30.5996Z" stroke="#A7A9AD" stroke-width="0.8" stroke-miterlimit="2.613"/>
<path d="M12.0039 30.5996H16.0214" stroke="#A7A9AD" stroke-width="0.8" stroke-miterlimit="2.613"/>
<path d="M10.4043 30.046C10.7359 29.5742 11.1899 29.2037 11.7163 28.9754C12.2427 28.7472 12.8212 28.6699 13.3883 28.7521L14.076 27.8289C14.3233 28.1336 14.5736 28.4433 14.821 28.7521C15.4318 28.6569 16.0562 28.7075 16.6443 28.8999C17.2323 29.0924 17.7675 29.4212 18.2071 29.8602L10.4043 30.046ZM12.0048 32.1088H16.0264H12.0048Z" stroke="#A7A9AD" stroke-width="0.8" stroke-miterlimit="2.613"/>
<path fill-rule="evenodd" clip-rule="evenodd" d="M12.293 40.2665H16.2522C16.2126 38.2759 16.1744 36.2849 16.1376 34.2935C16.0113 33.878 15.7565 33.5143 15.4104 33.256C15.0644 32.9976 14.6455 32.8582 14.2152 32.8582C13.785 32.8582 13.366 32.9976 13.02 33.256C12.674 33.5143 12.4192 33.878 12.293 34.2935V40.2665Z" stroke="#A7A9AD" stroke-width="0.8" stroke-miterlimit="2.613"/>
<path fill-rule="evenodd" clip-rule="evenodd" d="M20.4664 40.2999V31.2607C20.199 31.0575 19.9316 30.8656 19.6621 30.6685C20.1136 28.1396 22.9708 27.4937 24.4749 27.2794L25.1274 26.4729L25.7306 27.3332C26.755 27.3437 27.7566 27.6407 28.624 28.1913C29.4915 28.7419 30.191 29.5245 30.645 30.4522L29.7914 31.152V40.1912L30.4439 40.5132V41.6974L29.539 42.0214V42.774H20.5147V42.0742L19.7646 41.7503V40.6219L20.4684 40.2979L20.4664 40.2999Z" stroke="#A7A9AD" stroke-width="0.8" stroke-miterlimit="2.613"/>
<path d="M20.2656 41.0534H29.8902" stroke="#A7A9AD" stroke-width="0.8" stroke-miterlimit="2.613"/>
<path fill-rule="evenodd" clip-rule="evenodd" d="M21.002 32.1404H22.0918V40.4534H21.002V32.1404Z" stroke="#A7A9AD" stroke-width="0.8" stroke-miterlimit="2.613"/>
<path fill-rule="evenodd" clip-rule="evenodd" d="M28.1172 32.1404H29.2071V40.4534H28.1172V32.1404Z" stroke="#A7A9AD" stroke-width="0.8" stroke-miterlimit="2.613"/>
<path fill-rule="evenodd" clip-rule="evenodd" d="M20.4863 30.5996H22.5524V31.6457H20.4873V30.5996H20.4863Z" stroke="#A7A9AD" stroke-width="0.8" stroke-miterlimit="2.613"/>
<path fill-rule="evenodd" clip-rule="evenodd" d="M27.5996 30.5996H29.6657V31.6457H27.5996V30.5996Z" stroke="#A7A9AD" stroke-width="0.8" stroke-miterlimit="2.613"/>
<path d="M23.0098 30.5996H27.0263" stroke="#A7A9AD" stroke-width="0.8" stroke-miterlimit="2.613"/>
<path d="M21.4102 30.046C21.7418 29.5742 22.1957 29.2037 22.7221 28.9754C23.2486 28.7472 23.827 28.6699 24.3941 28.7521L25.0818 27.8289C25.3292 28.1336 25.5795 28.4433 25.8268 28.7521C26.4376 28.657 27.062 28.7077 27.65 28.9001C28.238 29.0926 28.7732 29.4213 29.2129 29.8602L21.4102 30.046ZM23.0107 32.1088H27.0322H23.0107Z" stroke="#A7A9AD" stroke-width="0.8" stroke-miterlimit="2.613"/>
<path fill-rule="evenodd" clip-rule="evenodd" d="M23.2969 40.2665H27.2561C27.2165 38.2759 27.1783 36.2849 27.1415 34.2935C27.0153 33.878 26.7604 33.5143 26.4144 33.256C26.0684 32.9976 25.6495 32.8582 25.2192 32.8582C24.7889 32.8582 24.37 32.9976 24.024 33.256C23.6779 33.5143 23.4231 33.878 23.2969 34.2935V40.2665Z" stroke="#A7A9AD" stroke-width="0.8" stroke-miterlimit="2.613"/>
<path fill-rule="evenodd" clip-rule="evenodd" d="M31.3063 40.2999V31.2607C31.0388 31.0575 30.7734 30.8656 30.502 30.6685C30.9534 28.1396 33.8087 27.4937 35.3128 27.2794L35.9652 26.4729L36.5684 27.3332C37.5926 27.3436 38.5939 27.6406 39.4611 28.1912C40.3282 28.7418 41.0274 29.5245 41.4808 30.4522L40.6292 31.152V40.1912L41.2797 40.5132V41.6974L40.3748 42.0214V42.774H31.3526V42.0742L30.6005 41.7503V40.6219L31.3043 40.2979L31.3063 40.2999Z" stroke="#A7A9AD" stroke-width="0.8" stroke-miterlimit="2.613"/>
<path d="M31.1074 41.0535H40.732" stroke="#A7A9AD" stroke-width="0.8" stroke-miterlimit="2.613"/>
<path fill-rule="evenodd" clip-rule="evenodd" d="M31.8438 32.1404H32.9336V40.4534H31.8438V32.1404Z" stroke="#A7A9AD" stroke-width="0.8" stroke-miterlimit="2.613"/>
<path fill-rule="evenodd" clip-rule="evenodd" d="M38.9629 32.1404H40.0528V40.4534H38.9629V32.1404Z" stroke="#A7A9AD" stroke-width="0.8" stroke-miterlimit="2.613"/>
<path fill-rule="evenodd" clip-rule="evenodd" d="M31.3272 30.5996H33.3922V31.6457H31.3262V30.5996H31.3272Z" stroke="#A7A9AD" stroke-width="0.8" stroke-miterlimit="2.613"/>
<path fill-rule="evenodd" clip-rule="evenodd" d="M38.4414 30.5996H40.5065V31.6457H38.4414V30.5996Z" stroke="#A7A9AD" stroke-width="0.8" stroke-miterlimit="2.613"/>
<path d="M33.8515 30.5996H37.8681" stroke="#A7A9AD" stroke-width="0.8" stroke-miterlimit="2.613"/>
<path d="M32.25 30.0459C32.5821 29.5746 33.0361 29.2045 33.5624 28.9763C34.0887 28.7481 34.6669 28.6706 35.234 28.752L35.9217 27.8288C36.172 28.1335 36.4243 28.4433 36.6697 28.752C37.2802 28.657 37.9043 28.7077 38.492 28.9001C39.0797 29.0925 39.6145 29.4213 40.0538 29.8601L32.25 30.0459ZM33.8506 32.1087H37.8721H33.8506Z" stroke="#A7A9AD" stroke-width="0.8" stroke-miterlimit="2.613"/>
<path fill-rule="evenodd" clip-rule="evenodd" d="M34.1367 40.2665H38.096L37.9813 34.2935C37.8551 33.878 37.6003 33.5143 37.2543 33.256C36.9083 32.9976 36.4893 32.8582 36.0591 32.8582C35.6288 32.8582 35.2099 32.9976 34.8639 33.256C34.5179 33.5143 34.263 33.878 34.1367 34.2935V40.2665Z" stroke="#A7A9AD" stroke-width="0.8" stroke-miterlimit="2.613"/>
<path fill-rule="evenodd" clip-rule="evenodd" d="M106.478 40.2999V31.2607L105.674 30.6685C106.123 28.1396 108.98 27.4937 110.484 27.2794L111.137 26.4729L111.74 27.3332C112.764 27.344 113.765 27.6411 114.632 28.1917C115.5 28.7422 116.198 29.5247 116.652 30.4522L115.801 31.152V40.1912L116.451 40.5132V41.6974L115.546 42.0214V42.774H106.524V42.0742L105.773 41.7503V40.6219L106.476 40.2979L106.478 40.2999Z" stroke="#A7A9AD" stroke-width="0.8" stroke-miterlimit="2.613"/>
<path d="M106.277 41.0535H115.903" stroke="#A7A9AD" stroke-width="0.8" stroke-miterlimit="2.613"/>
<path fill-rule="evenodd" clip-rule="evenodd" d="M107.014 32.1404H108.103V40.4534H107.014V32.1404Z" stroke="#A7A9AD" stroke-width="0.8" stroke-miterlimit="2.613"/>
<path fill-rule="evenodd" clip-rule="evenodd" d="M114.129 32.1404H115.219V40.4534H114.129V32.1404Z" stroke="#A7A9AD" stroke-width="0.8" stroke-miterlimit="2.613"/>
<path fill-rule="evenodd" clip-rule="evenodd" d="M106.498 30.5996H108.564V31.6457H106.498V30.5996Z" stroke="#A7A9AD" stroke-width="0.8" stroke-miterlimit="2.613"/>
<path fill-rule="evenodd" clip-rule="evenodd" d="M113.613 30.5996H115.675V31.6457H113.609V30.5996H113.613Z" stroke="#A7A9AD" stroke-width="0.8" stroke-miterlimit="2.613"/>
<path d="M109.023 30.5996H113.039" stroke="#A7A9AD" stroke-width="0.8" stroke-miterlimit="2.613"/>
<path d="M107.422 30.0459C107.753 29.5741 108.207 29.2037 108.734 28.9754C109.26 28.7471 109.839 28.6698 110.406 28.752L111.093 27.8288C111.343 28.1349 111.592 28.4426 111.839 28.752C112.449 28.6568 113.074 28.7075 113.662 28.8999C114.25 29.0923 114.785 29.4211 115.225 29.8601L107.422 30.0459ZM109.023 32.1087H113.044H109.023Z" stroke="#A7A9AD" stroke-width="0.8" stroke-miterlimit="2.613"/>
<path fill-rule="evenodd" clip-rule="evenodd" d="M109.307 40.2667H113.266L113.151 34.2937C113.025 33.8785 112.77 33.5153 112.424 33.2572C112.078 32.9992 111.659 32.8599 111.229 32.8599C110.799 32.8599 110.381 32.9992 110.035 33.2572C109.689 33.5153 109.434 33.8785 109.307 34.2937V40.2667H109.307Z" stroke="#A7A9AD" stroke-width="0.8" stroke-miterlimit="2.613"/>
<path fill-rule="evenodd" clip-rule="evenodd" d="M117.484 40.2999V31.2607L116.68 30.6685C117.131 28.1396 119.988 27.4937 121.492 27.2794L122.145 26.4729L122.748 27.3332C123.772 27.344 124.774 27.6411 125.64 28.1917C126.508 28.7422 127.207 29.5247 127.66 30.4522L126.807 31.152V40.1912L127.46 40.5132V41.6974L126.554 42.0214V42.774H117.53V42.0742L116.78 41.7503V40.6219L117.484 40.2979V40.2999Z" stroke="#A7A9AD" stroke-width="0.8" stroke-miterlimit="2.613"/>
<path d="M117.283 41.0534H126.908" stroke="#A7A9AD" stroke-width="0.8" stroke-miterlimit="2.613"/>
<path fill-rule="evenodd" clip-rule="evenodd" d="M118.019 32.1404H119.109V40.4534H118.019V32.1404Z" stroke="#A7A9AD" stroke-width="0.8" stroke-miterlimit="2.613"/>
<path fill-rule="evenodd" clip-rule="evenodd" d="M125.137 32.1404H126.227V40.4534H125.137V32.1404Z" stroke="#A7A9AD" stroke-width="0.8" stroke-miterlimit="2.613"/>
<path fill-rule="evenodd" clip-rule="evenodd" d="M117.504 30.5996H119.57V31.6457H117.504V30.5996Z" stroke="#A7A9AD" stroke-width="0.8" stroke-miterlimit="2.613"/>
<path fill-rule="evenodd" clip-rule="evenodd" d="M124.619 30.5996H126.685V31.6457H124.619V30.5996Z" stroke="#A7A9AD" stroke-width="0.8" stroke-miterlimit="2.613"/>
<path d="M120.029 30.5996H124.047" stroke="#A7A9AD" stroke-width="0.8" stroke-miterlimit="2.613"/>
<path d="M118.428 30.046C118.76 29.5742 119.213 29.2037 119.74 28.9754C120.266 28.7472 120.844 28.6699 121.412 28.7521L122.1 27.8289C122.347 28.1336 122.597 28.4433 122.844 28.7521C123.455 28.6569 124.08 28.7075 124.668 28.8999C125.256 29.0924 125.791 29.4212 126.23 29.8602L118.428 30.046ZM120.028 32.1088H124.05H120.028Z" stroke="#A7A9AD" stroke-width="0.8" stroke-miterlimit="2.613"/>
<path fill-rule="evenodd" clip-rule="evenodd" d="M120.314 40.2665H124.274C124.234 38.2759 124.196 36.2849 124.159 34.2935C124.033 33.878 123.778 33.5143 123.432 33.256C123.086 32.9976 122.667 32.8582 122.237 32.8582C121.806 32.8582 121.388 32.9976 121.042 33.256C120.696 33.5143 120.44 33.878 120.314 34.2935V40.2665Z" stroke="#A7A9AD" stroke-width="0.8" stroke-miterlimit="2.613"/>
<path fill-rule="evenodd" clip-rule="evenodd" d="M128.322 40.2999V31.2607C128.057 31.0575 127.79 30.8656 127.518 30.6685C127.969 28.1396 130.826 27.4937 132.329 27.2794L132.981 26.4729L133.584 27.3332C134.608 27.3436 135.61 27.6406 136.477 28.1912C137.344 28.7418 138.043 29.5245 138.497 30.4522L137.645 31.152V40.1912L138.298 40.5132V41.6974L137.393 42.0214V42.774H128.368V42.0742L127.616 41.7503V40.6219L128.32 40.2979L128.322 40.2999Z" stroke="#A7A9AD" stroke-width="0.8" stroke-miterlimit="2.613"/>
<path d="M128.125 41.0535H137.75" stroke="#A7A9AD" stroke-width="0.8" stroke-miterlimit="2.613"/>
<path fill-rule="evenodd" clip-rule="evenodd" d="M128.861 32.1404H129.951V40.4534H128.861V32.1404Z" stroke="#A7A9AD" stroke-width="0.8" stroke-miterlimit="2.613"/>
<path fill-rule="evenodd" clip-rule="evenodd" d="M135.977 32.1404H137.067V40.4534H135.977V32.1404Z" stroke="#A7A9AD" stroke-width="0.8" stroke-miterlimit="2.613"/>
<path fill-rule="evenodd" clip-rule="evenodd" d="M128.346 30.5996H130.41V31.6457H128.346V30.5996Z" stroke="#A7A9AD" stroke-width="0.8" stroke-miterlimit="2.613"/>
<path fill-rule="evenodd" clip-rule="evenodd" d="M135.459 30.5996H137.526V31.6457H135.459V30.5996Z" stroke="#A7A9AD" stroke-width="0.8" stroke-miterlimit="2.613"/>
<path d="M130.869 30.5996H134.885" stroke="#A7A9AD" stroke-width="0.8" stroke-miterlimit="2.613"/>
<path d="M129.266 30.046C129.598 29.5748 130.052 29.2048 130.578 28.9766C131.105 28.7483 131.683 28.6707 132.25 28.7521L132.938 27.8289C133.188 28.1336 133.435 28.4433 133.686 28.7521C134.296 28.6571 134.92 28.7078 135.508 28.9002C136.096 29.0926 136.63 29.4214 137.07 29.8602L129.266 30.046ZM130.87 32.1088H134.891H130.87Z" stroke="#A7A9AD" stroke-width="0.8" stroke-miterlimit="2.613"/>
<path fill-rule="evenodd" clip-rule="evenodd" d="M131.156 40.2664H135.116L135.003 34.2935C134.878 33.8771 134.623 33.5126 134.276 33.2536C133.93 32.9945 133.511 32.8547 133.08 32.8547C132.649 32.8547 132.23 32.9945 131.883 33.2536C131.537 33.5126 131.282 33.8771 131.156 34.2935V40.2664Z" stroke="#A7A9AD" stroke-width="0.8" stroke-miterlimit="2.613"/>
<path fill-rule="evenodd" clip-rule="evenodd" d="M9.46644 60.5731V51.5339L8.66211 50.9417C9.11351 48.4148 11.9708 47.7688 13.4749 47.5525L14.1274 46.7461L14.7306 47.6064C15.7549 47.6174 16.7561 47.9149 17.6232 48.4659C18.4904 49.0168 19.1894 49.7996 19.6429 50.7274L18.7893 51.4272V60.4664L19.4418 60.7904V61.9746L18.537 62.2966V63.0492H9.51264V62.3504L8.76264 62.0285V60.8981L9.46644 60.5761V60.5731Z" stroke="#A7A9AD" stroke-width="0.8" stroke-miterlimit="2.613"/>
<path d="M9.25977 61.325H18.8843" stroke="#A7A9AD" stroke-width="0.8" stroke-miterlimit="2.613"/>
<path fill-rule="evenodd" clip-rule="evenodd" d="M9.99414 52.4104H11.085V60.7225H9.99414V52.4104Z" stroke="#A7A9AD" stroke-width="0.8" stroke-miterlimit="2.613"/>
<path fill-rule="evenodd" clip-rule="evenodd" d="M17.1115 52.4104H18.1983V60.7225H17.1074V52.4104H17.1115Z" stroke="#A7A9AD" stroke-width="0.8" stroke-miterlimit="2.613"/>
<path fill-rule="evenodd" clip-rule="evenodd" d="M9.48047 50.8711H11.5465V51.9182H9.48047V50.8711Z" stroke="#A7A9AD" stroke-width="0.8" stroke-miterlimit="2.613"/>
<path fill-rule="evenodd" clip-rule="evenodd" d="M16.5957 50.8711H18.6618V51.9182H16.5957V50.8711Z" stroke="#A7A9AD" stroke-width="0.8" stroke-miterlimit="2.613"/>
<path d="M12.0039 50.8711H16.0214" stroke="#A7A9AD" stroke-width="0.8" stroke-miterlimit="2.613"/>
<path d="M10.4043 50.3166C10.7359 49.8447 11.1899 49.4743 11.7163 49.2459C12.2427 49.0177 12.8212 48.9404 13.3883 49.0226L14.076 48.0994C14.3233 48.404 14.5736 48.7159 14.821 49.0226C15.4318 48.9279 16.0561 48.9788 16.644 49.1713C17.2319 49.3636 17.7672 49.6922 18.2071 50.1307L10.4043 50.3166ZM12.0048 52.3793H16.0264H12.0048Z" stroke="#A7A9AD" stroke-width="0.8" stroke-miterlimit="2.613"/>
<path fill-rule="evenodd" clip-rule="evenodd" d="M12.293 60.5402H16.2522C16.2126 58.5495 16.1744 56.5589 16.1376 54.5682C16.0113 54.1526 15.7565 53.789 15.4104 53.5306C15.0644 53.2723 14.6455 53.1328 14.2152 53.1328C13.785 53.1328 13.366 53.2723 13.02 53.5306C12.674 53.789 12.4192 54.1526 12.293 54.5682V60.5402Z" stroke="#A7A9AD" stroke-width="0.8" stroke-miterlimit="2.613"/>
<path fill-rule="evenodd" clip-rule="evenodd" d="M20.4664 60.5731V51.5339L19.6621 50.9417C20.1136 48.4148 22.9708 47.7688 24.4749 47.5525L25.1274 46.7461L25.7306 47.6064C26.7552 47.6172 27.7568 47.9146 28.6243 48.4655C29.4918 49.0164 30.1912 49.7993 30.645 50.7274L29.7914 51.4272V60.4664L30.4439 60.7904V61.9746L29.539 62.2966V63.0492H20.5147V62.3504L19.7646 62.0285V60.8981L20.4684 60.5761L20.4664 60.5731Z" stroke="#A7A9AD" stroke-width="0.8" stroke-miterlimit="2.613"/>
<path d="M20.2656 61.325H29.8902" stroke="#A7A9AD" stroke-width="0.8" stroke-miterlimit="2.613"/>
<path fill-rule="evenodd" clip-rule="evenodd" d="M21.002 52.4104H22.0918V60.7225H21.002V52.4104Z" stroke="#A7A9AD" stroke-width="0.8" stroke-miterlimit="2.613"/>
<path fill-rule="evenodd" clip-rule="evenodd" d="M28.1172 52.4104H29.2071V60.7225H28.1172V52.4104Z" stroke="#A7A9AD" stroke-width="0.8" stroke-miterlimit="2.613"/>
<path fill-rule="evenodd" clip-rule="evenodd" d="M20.4863 50.8711H22.5524V51.9182H20.4873V50.8711H20.4863Z" stroke="#A7A9AD" stroke-width="0.8" stroke-miterlimit="2.613"/>
<path fill-rule="evenodd" clip-rule="evenodd" d="M27.5996 50.8711H29.6657V51.9182H27.5996V50.8711Z" stroke="#A7A9AD" stroke-width="0.8" stroke-miterlimit="2.613"/>
<path d="M23.0098 50.8711H27.0263" stroke="#A7A9AD" stroke-width="0.8" stroke-miterlimit="2.613"/>
<path d="M21.4102 50.3166C21.7418 49.8447 22.1957 49.4743 22.7221 49.2459C23.2486 49.0177 23.827 48.9404 24.3941 49.0226L25.0818 48.0994C25.3292 48.404 25.5795 48.7159 25.8268 49.0226C26.4376 48.9281 27.0619 48.9791 27.6498 49.1715C28.2376 49.3639 28.7729 49.6923 29.2129 50.1307L21.4102 50.3166ZM23.0107 52.3793H27.0322H23.0107Z" stroke="#A7A9AD" stroke-width="0.8" stroke-miterlimit="2.613"/>
<path fill-rule="evenodd" clip-rule="evenodd" d="M23.2969 60.5402H27.2561C27.2165 58.5495 27.1783 56.5589 27.1415 54.5682C27.0153 54.1526 26.7604 53.789 26.4144 53.5306C26.0684 53.2723 25.6495 53.1328 25.2192 53.1328C24.7889 53.1328 24.37 53.2723 24.024 53.5306C23.6779 53.789 23.4231 54.1526 23.2969 54.5682V60.5402Z" stroke="#A7A9AD" stroke-width="0.8" stroke-miterlimit="2.613"/>
<path fill-rule="evenodd" clip-rule="evenodd" d="M31.3063 60.5731V51.5339C31.0388 51.3378 30.7734 51.1387 30.502 50.9417C30.9534 48.4148 33.8087 47.7688 35.3128 47.5525L35.9652 46.7461L36.5684 47.6064C37.5928 47.6171 38.5942 47.9144 39.4614 48.4654C40.3286 49.0164 41.0276 49.7993 41.4808 50.7274L40.6292 51.4272V60.4664L41.2797 60.7904V61.9746L40.3748 62.2966V63.0492H31.3526V62.3504L30.6005 62.0285V60.8981L31.3043 60.5761L31.3063 60.5731Z" stroke="#A7A9AD" stroke-width="0.8" stroke-miterlimit="2.613"/>
<path d="M31.1074 61.325H40.732" stroke="#A7A9AD" stroke-width="0.8" stroke-miterlimit="2.613"/>
<path fill-rule="evenodd" clip-rule="evenodd" d="M31.8438 52.4104H32.9336V60.7225H31.8438V52.4104Z" stroke="#A7A9AD" stroke-width="0.8" stroke-miterlimit="2.613"/>
<path fill-rule="evenodd" clip-rule="evenodd" d="M38.9629 52.4104H40.0528V60.7225H38.9629V52.4104Z" stroke="#A7A9AD" stroke-width="0.8" stroke-miterlimit="2.613"/>
<path fill-rule="evenodd" clip-rule="evenodd" d="M31.3272 50.8711H33.3922V51.9182H31.3262V50.8711H31.3272Z" stroke="#A7A9AD" stroke-width="0.8" stroke-miterlimit="2.613"/>
<path fill-rule="evenodd" clip-rule="evenodd" d="M38.4414 50.8711H40.5065V51.9182H38.4414V50.8711Z" stroke="#A7A9AD" stroke-width="0.8" stroke-miterlimit="2.613"/>
<path d="M33.8515 50.8711H37.8681" stroke="#A7A9AD" stroke-width="0.8" stroke-miterlimit="2.613"/>
<path d="M32.25 50.3167C32.5821 49.8453 33.0361 49.4753 33.5624 49.2471C34.0887 49.0188 34.6669 48.9412 35.234 49.0227L35.9217 48.0995C36.172 48.4042 36.4243 48.716 36.6697 49.0227C37.2802 48.9281 37.9042 48.9791 38.4917 49.1715C39.0793 49.3639 39.6143 49.6924 40.0538 50.1308L32.25 50.3167ZM33.8506 52.3794H37.8721H33.8506Z" stroke="#A7A9AD" stroke-width="0.8" stroke-miterlimit="2.613"/>
<path fill-rule="evenodd" clip-rule="evenodd" d="M34.1367 60.5402H38.096L37.9813 54.5682C37.8551 54.1526 37.6003 53.789 37.2543 53.5306C36.9083 53.2723 36.4893 53.1328 36.0591 53.1328C35.6288 53.1328 35.2099 53.2723 34.8639 53.5306C34.5179 53.789 34.263 54.1526 34.1367 54.5682V60.5402Z" stroke="#A7A9AD" stroke-width="0.8" stroke-miterlimit="2.613"/>
<path fill-rule="evenodd" clip-rule="evenodd" d="M63.0973 60.5731V51.5339L62.293 50.9417C62.7444 48.4148 65.6017 47.7688 67.1057 47.5525L67.7564 46.7461L68.3597 47.6064C69.3837 47.6175 70.3857 47.915 71.253 48.4659C72.1204 49.0168 72.8197 49.7995 73.2737 50.7274L72.4204 51.4272V60.4664L73.073 60.7904V61.9746L72.1677 62.2966V63.0492H63.1436V62.3504L62.3915 62.0285V60.8981L63.0953 60.5761L63.0973 60.5731Z" stroke="#A7A9AD" stroke-width="0.8" stroke-miterlimit="2.613"/>
<path d="M62.8965 61.325H72.521" stroke="#A7A9AD" stroke-width="0.8" stroke-miterlimit="2.613"/>
<path fill-rule="evenodd" clip-rule="evenodd" d="M63.6328 52.4104H64.7226V60.7225H63.6328V52.4104Z" stroke="#A7A9AD" stroke-width="0.8" stroke-miterlimit="2.613"/>
<path fill-rule="evenodd" clip-rule="evenodd" d="M70.748 52.4104H71.838V60.7225H70.748V52.4104Z" stroke="#A7A9AD" stroke-width="0.8" stroke-miterlimit="2.613"/>
<path fill-rule="evenodd" clip-rule="evenodd" d="M63.1153 50.8711H65.1813V51.9182H63.1153V50.8711Z" stroke="#A7A9AD" stroke-width="0.8" stroke-miterlimit="2.613"/>
<path fill-rule="evenodd" clip-rule="evenodd" d="M70.2305 50.8711H72.2965V51.9182H70.2305V50.8711Z" stroke="#A7A9AD" stroke-width="0.8" stroke-miterlimit="2.613"/>
<path d="M64.0371 50.3166C64.3692 49.8452 64.8232 49.4751 65.3495 49.247C65.8758 49.0187 66.4541 48.9411 67.0214 49.0226L67.7107 48.0994L68.456 49.0226C69.0667 48.9281 69.6907 48.9791 70.2787 49.1715C70.8667 49.3639 71.402 49.6923 71.842 50.1307L64.0371 50.3166ZM65.6407 50.8711H69.662H65.6407ZM65.6407 52.3793H69.662H65.6407Z" stroke="#A7A9AD" stroke-width="0.8" stroke-miterlimit="2.613"/>
<path fill-rule="evenodd" clip-rule="evenodd" d="M65.9297 60.5402H69.8886C69.8493 58.5495 69.8113 56.5589 69.774 54.5682C69.648 54.1526 69.3933 53.789 69.0473 53.5306C68.7013 53.2723 68.282 53.1328 67.852 53.1328C67.422 53.1328 67.0026 53.2723 66.6568 53.5306C66.3107 53.789 66.0559 54.1526 65.9297 54.5682V60.5402Z" stroke="#A7A9AD" stroke-width="0.8" stroke-miterlimit="2.613"/>
<path fill-rule="evenodd" clip-rule="evenodd" d="M73.9394 60.5731V51.5339L73.1348 50.9417C73.5881 48.4148 76.4434 47.7688 77.9474 47.5525L78.6001 46.7461L79.2034 47.6064C80.2274 47.6174 81.2288 47.9149 82.0961 48.4659C82.9634 49.0168 83.6621 49.7996 84.1154 50.7274L83.2641 51.4272V60.4664L83.9148 60.7904V61.9746L83.0101 62.2966V63.0492H73.9928V62.3504L73.2408 62.0285V60.8981L73.9441 60.5761L73.9394 60.5731Z" stroke="#A7A9AD" stroke-width="0.8" stroke-miterlimit="2.613"/>
<path d="M73.7383 61.325H83.3636" stroke="#A7A9AD" stroke-width="0.8" stroke-miterlimit="2.613"/>
<path fill-rule="evenodd" clip-rule="evenodd" d="M74.4746 52.4104H75.5646V60.7225H74.4746V52.4104Z" stroke="#A7A9AD" stroke-width="0.8" stroke-miterlimit="2.613"/>
<path fill-rule="evenodd" clip-rule="evenodd" d="M81.5898 52.4104H82.6798V60.7225H81.5898V52.4104Z" stroke="#A7A9AD" stroke-width="0.8" stroke-miterlimit="2.613"/>
<path fill-rule="evenodd" clip-rule="evenodd" d="M73.957 50.8711H76.023V51.9182H73.957V50.8711Z" stroke="#A7A9AD" stroke-width="0.8" stroke-miterlimit="2.613"/>
<path fill-rule="evenodd" clip-rule="evenodd" d="M81.0742 50.8711H83.1396V51.9182H81.0742V50.8711Z" stroke="#A7A9AD" stroke-width="0.8" stroke-miterlimit="2.613"/>
<path d="M74.8807 50.3167C75.2127 49.8448 75.6667 49.4744 76.1927 49.2461C76.7193 49.0178 77.298 48.9405 77.8647 49.0227L78.5527 48.0995C78.8027 48.4076 79.0507 48.7153 79.2973 49.0227C79.908 48.9283 80.5327 48.9794 81.12 49.1719C81.708 49.3645 82.2433 49.6933 82.6827 50.1318L74.8807 50.3167ZM76.4813 50.8712H80.5027H76.4813ZM76.4813 52.3794H80.5027H76.4813Z" stroke="#A7A9AD" stroke-width="0.8" stroke-miterlimit="2.613"/>
<path fill-rule="evenodd" clip-rule="evenodd" d="M76.7693 60.5401H80.7287L80.614 54.5682C80.4873 54.1526 80.2327 53.7889 79.8867 53.5305C79.5407 53.2722 79.122 53.1327 78.6913 53.1327C78.2613 53.1327 77.842 53.2722 77.496 53.5305C77.15 53.7889 76.8953 54.1526 76.7693 54.5682V60.5401Z" stroke="#A7A9AD" stroke-width="0.8" stroke-miterlimit="2.613"/>
<path d="M99.7807 45.0004H139.042H99.7807ZM9.916 45.3376H40.4546H9.916Z" stroke="#A7A9AD" stroke-width="0.8" stroke-miterlimit="2.613"/>
<path d="M9.91797 64.4326H40.4545" stroke="#A7A9AD" stroke-width="0.8" stroke-miterlimit="2.613"/>
<path d="M63.9824 64.4326H139.543" stroke="#A7A9AD" stroke-width="0.8" stroke-miterlimit="2.613"/>
<path d="M48.1074 64.4326H56.7256" stroke="#A7A9AD" stroke-width="0.8" stroke-miterlimit="2.613"/>
<path d="M9.91797 66.0049H40.4545" stroke="#A7A9AD" stroke-width="0.8" stroke-miterlimit="2.613"/>
<path d="M63.9815 66.005H139.542H63.9815ZM48.1074 66.005H56.7206H48.1074ZM140.547 25.2776V26.6691L145.393 26.6599L145.399 25.2878L140.547 25.2695V25.2776ZM141.491 26.6406L141.597 42.8331L140.639 43.3175L140.586 46.3289H145.751L145.857 43.2607L144.793 42.8849L144.847 26.6924L141.491 26.6386L141.491 26.6406Z" stroke="#A7A9AD" stroke-width="0.8" stroke-miterlimit="2.613"/>
<path fill-rule="evenodd" clip-rule="evenodd" d="M141.443 28.4119H140.805L140.752 30.1222H145.598V28.4119H141.443Z" stroke="#A7A9AD" stroke-width="0.8" stroke-miterlimit="2.613"/>
<path fill-rule="evenodd" clip-rule="evenodd" d="M141.443 39.6316H140.805L140.752 41.4831H145.598V39.6316H141.443Z" stroke="#A7A9AD" stroke-width="0.8" stroke-miterlimit="2.613"/>
<path d="M140.591 45.0338H145.861H140.591ZM140.551 44.9323V46.3278L145.397 46.3187L145.404 44.9465L140.551 44.9282V44.9323ZM141.495 46.2953L141.601 62.4877L140.643 62.9722L140.59 65.9845H145.751L145.857 62.9163L144.793 62.5405L144.847 46.3481L141.492 46.2942L141.495 46.2953Z" stroke="#A7A9AD" stroke-width="0.8" stroke-miterlimit="2.613"/>
<path fill-rule="evenodd" clip-rule="evenodd" d="M141.443 48.0667H140.805L140.752 49.8442H145.598V48.0667H141.443Z" stroke="#A7A9AD" stroke-width="0.8" stroke-miterlimit="2.613"/>
<path fill-rule="evenodd" clip-rule="evenodd" d="M141.443 59.12H140.805L140.752 61.586H145.598V59.12H141.443Z" stroke="#A7A9AD" stroke-width="0.8" stroke-miterlimit="2.613"/>
<path d="M140.645 63.7219H145.863" stroke="#A7A9AD" stroke-width="0.8" stroke-miterlimit="2.613"/>
<path d="M143.252 49.9639V59.2388V49.9639ZM143.252 29.8877V39.2794V29.8877Z" stroke="#A7A9AD" stroke-width="0.8" stroke-miterlimit="2.613"/>
<path d="M57.5723 25.2736V26.6691L62.4182 26.6599L62.4253 25.2878L57.5723 25.2695V25.2736ZM58.5163 26.6366L58.6229 42.829L57.6647 43.3135L57.6115 46.3248H62.7761L62.8847 43.2566L61.819 42.8808L61.8723 26.6884L58.5173 26.6345L58.5163 26.6366Z" stroke="#A7A9AD" stroke-width="0.8" stroke-miterlimit="2.613"/>
<path fill-rule="evenodd" clip-rule="evenodd" d="M58.4642 28.4119H57.8247L57.7715 30.1222H62.6174V28.4119H58.4642Z" stroke="#A7A9AD" stroke-width="0.8" stroke-miterlimit="2.613"/>
<path fill-rule="evenodd" clip-rule="evenodd" d="M58.4642 39.6316H57.8247L57.7715 41.4831H62.6174V39.6316H58.4642Z" stroke="#A7A9AD" stroke-width="0.8" stroke-miterlimit="2.613"/>
<path d="M57.6124 45.0338H62.8886H57.6124ZM57.5762 44.9323V46.3278L62.4221 46.3187L62.4292 44.9465L57.5762 44.9282V44.9323ZM58.5202 46.2953L58.6268 62.4877L57.6686 62.9722L57.6154 65.9845H62.78L62.8886 62.9163L61.8229 62.5405L61.8762 46.3481L58.5212 46.2942L58.5202 46.2953Z" stroke="#A7A9AD" stroke-width="0.8" stroke-miterlimit="2.613"/>
<path fill-rule="evenodd" clip-rule="evenodd" d="M58.4642 48.0667H57.8247L57.7715 49.8442H62.6174V48.0667H58.4642Z" stroke="#A7A9AD" stroke-width="0.8" stroke-miterlimit="2.613"/>
<path fill-rule="evenodd" clip-rule="evenodd" d="M58.4643 59.12H57.8248L57.7695 61.584H62.6155V59.1179L58.4643 59.12Z" stroke="#A7A9AD" stroke-width="0.8" stroke-miterlimit="2.613"/>
<path d="M57.666 63.7219H62.885" stroke="#A7A9AD" stroke-width="0.8" stroke-miterlimit="2.613"/>
<path d="M60.2754 49.9639V59.2388V49.9639ZM60.2754 29.8877V39.2794V29.8877Z" stroke="#A7A9AD" stroke-width="0.8" stroke-miterlimit="2.613"/>
<path d="M74.2033 25.2867V26.6832L79.0493 26.6761L79.0587 25.3019L74.2033 25.2867ZM75.1473 26.6477L75.256 42.8401L74.296 43.3245L74.2427 46.3369H79.4093L79.516 43.2717L78.45 42.8939L78.5033 26.7015L75.1487 26.6477H75.1473Z" stroke="#A7A9AD" stroke-width="0.8" stroke-miterlimit="2.613"/>
<path fill-rule="evenodd" clip-rule="evenodd" d="M75.0943 28.4238H74.4557L74.4023 30.1352H79.2483V28.4238H75.0943Z" stroke="#A7A9AD" stroke-width="0.8" stroke-miterlimit="2.613"/>
<path fill-rule="evenodd" clip-rule="evenodd" d="M75.0943 39.644H74.4557L74.4023 41.4955H79.2483V39.644H75.0943Z" stroke="#A7A9AD" stroke-width="0.8" stroke-miterlimit="2.613"/>
<path d="M74.2437 45.0462H79.5164H74.2437ZM74.2044 44.9446V46.3431L79.0504 46.334L79.059 44.9598L74.2044 44.9446ZM76.9064 29.9008V39.2945V29.9008ZM41.5352 25.2787V26.6691L46.3811 26.6599L46.3882 25.2878L41.5352 25.2695V25.2787ZM42.4792 26.6417L42.5858 42.8341L41.6277 43.3185L41.5744 46.3299H46.7391L46.8456 43.2617L45.782 42.8859L45.8352 26.6934L42.4802 26.6396L42.4792 26.6417Z" stroke="#A7A9AD" stroke-width="0.8" stroke-miterlimit="2.613"/>
<path fill-rule="evenodd" clip-rule="evenodd" d="M42.4272 28.4119H41.7837L41.7305 30.1221H46.5764V28.4119H42.4272Z" stroke="#A7A9AD" stroke-width="0.8" stroke-miterlimit="2.613"/>
<path fill-rule="evenodd" clip-rule="evenodd" d="M42.4272 39.6316H41.7837L41.7305 41.4831H46.5764V39.6316H42.4272Z" stroke="#A7A9AD" stroke-width="0.8" stroke-miterlimit="2.613"/>
<path d="M41.5744 45.0338H46.8456H41.5744ZM41.5352 44.9323V46.3278L46.3811 46.3187L46.3882 44.9465L41.5352 44.9282V44.9323ZM42.4792 46.2953L42.5858 62.4877L41.6277 62.9722L41.5744 65.9845H46.7391L46.8456 62.9163L45.782 62.5405L45.8352 46.3481L42.4802 46.2942L42.4792 46.2953Z" stroke="#A7A9AD" stroke-width="0.8" stroke-miterlimit="2.613"/>
<path fill-rule="evenodd" clip-rule="evenodd" d="M42.4272 48.0667H41.7837L41.7305 49.8441H46.5764V48.0667H42.4272Z" stroke="#A7A9AD" stroke-width="0.8" stroke-miterlimit="2.613"/>
<path fill-rule="evenodd" clip-rule="evenodd" d="M42.4272 59.1199H41.7837L41.7305 61.5858H46.5764V59.1199H42.4272Z" stroke="#A7A9AD" stroke-width="0.8" stroke-miterlimit="2.613"/>
<path d="M41.627 63.7219H46.846" stroke="#A7A9AD" stroke-width="0.8" stroke-miterlimit="2.613"/>
<path d="M44.2383 49.9639V59.2388V49.9639ZM44.2383 29.8877V39.2794V29.8877Z" stroke="#A7A9AD" stroke-width="0.8" stroke-miterlimit="2.613"/>
<path d="M3.53125 25.2736V26.6691L8.37718 26.6599L8.38625 25.2878L3.53125 25.2695V25.2736ZM4.47831 26.6366L4.5849 42.829L3.62474 43.3135L3.57147 46.3248H8.73812L8.84472 43.2566L7.77798 42.8808L7.83132 26.6884L4.47831 26.6345V26.6366Z" stroke="#A7A9AD" stroke-width="0.8" stroke-miterlimit="2.613"/>
<path fill-rule="evenodd" clip-rule="evenodd" d="M4.42412 28.4119H3.78568L3.73242 30.1221H8.57838V28.4119H4.42412Z" stroke="#A7A9AD" stroke-width="0.8" stroke-miterlimit="2.613"/>
<path fill-rule="evenodd" clip-rule="evenodd" d="M4.42412 39.6316H3.78568L3.73242 41.4831H8.57838V39.6316H4.42412Z" stroke="#A7A9AD" stroke-width="0.8" stroke-miterlimit="2.613"/>
<path d="M3.57046 45.0338H8.84368H3.57046ZM3.53125 44.9323V46.3278L8.37722 46.3187L8.38622 44.9465L3.53125 44.9282V44.9323ZM4.47831 46.2953L4.5849 62.4877L3.62474 62.9722L3.57144 65.9845H8.73815L8.84475 62.9163L7.77802 62.5405L7.83128 46.3481L4.47831 46.2942V46.2953Z" stroke="#A7A9AD" stroke-width="0.8" stroke-miterlimit="2.613"/>
<path fill-rule="evenodd" clip-rule="evenodd" d="M4.42412 48.0667H3.78568L3.73242 49.8441H8.57838V48.0667H4.42412Z" stroke="#A7A9AD" stroke-width="0.8" stroke-miterlimit="2.613"/>
<path fill-rule="evenodd" clip-rule="evenodd" d="M4.42412 59.1199H3.78568L3.73242 61.5858H8.57838V59.1199H4.42412Z" stroke="#A7A9AD" stroke-width="0.8" stroke-miterlimit="2.613"/>
<path d="M3.625 63.7219H8.84399" stroke="#A7A9AD" stroke-width="0.8" stroke-miterlimit="2.613"/>
<path d="M6.23242 49.9639V59.2388V49.9639ZM6.23242 29.8877V39.2794V29.8877Z" stroke="#A7A9AD" stroke-width="0.8" stroke-miterlimit="2.613"/>
<path d="M47.0684 31.2515H52.1748L49.5155 29.1187L47.0684 31.2515Z" stroke="#A7A9AD" stroke-width="0.8" stroke-miterlimit="2.613"/>
<path fill-rule="evenodd" clip-rule="evenodd" d="M87.7402 39.3609H95.9416L91.6696 37.228L87.7402 39.3609Z" stroke="#A7A9AD" stroke-width="0.8" stroke-miterlimit="2.613"/>
<path fill-rule="evenodd" clip-rule="evenodd" d="M112.694 49.5686H122.111L117.204 46.5684L112.689 49.5686H112.694Z" stroke="#A7A9AD" stroke-width="0.8" stroke-miterlimit="2.613"/>
<path d="M47.0694 53.6078H50.8426L48.878 51.9187L47.0684 53.6078H47.0694Z" stroke="#A7A9AD" stroke-width="0.8" stroke-miterlimit="2.613"/>
<path fill-rule="evenodd" clip-rule="evenodd" d="M47.2832 32.2642V39.3411H51.7471V32.2642H47.2832Z" stroke="#A7A9AD" stroke-width="0.8" stroke-miterlimit="2.613"/>
<path fill-rule="evenodd" clip-rule="evenodd" d="M47.2266 54.4092V60.0085H50.5272V54.4092H47.2266Z" stroke="#A7A9AD" stroke-width="0.8" stroke-miterlimit="2.613"/>
<path fill-rule="evenodd" clip-rule="evenodd" d="M52.7285 42.4845H56.8355V33.6098L54.8378 32.1462L52.8391 33.7185L52.7285 42.4804V42.4845Z" stroke="#A7A9AD" stroke-width="0.8" stroke-miterlimit="2.613"/>
<path d="M80.4544 44.9558H83.8124H80.4544ZM47.3994 50.5713H57.2794C56.9521 49.4744 56.2958 48.5072 55.4012 47.8031C54.5065 47.0991 53.4175 46.693 52.2846 46.6408C51.1959 46.7925 50.1677 47.2375 49.308 47.9292C48.4482 48.6208 47.7886 49.5334 47.3984 50.5713H47.3994ZM47.7332 44.9558H56.5032H47.7332ZM63.9431 44.9558H72.713H63.9431Z" stroke="#A7A9AD" stroke-width="0.8" stroke-miterlimit="2.613"/>
<path fill-rule="evenodd" clip-rule="evenodd" d="M52.0625 62.9277H56.8381V53.7168C56.6372 53.2614 56.31 52.8746 55.896 52.6032C55.4821 52.3317 54.9992 52.1873 54.5056 52.1873C54.0121 52.1873 53.5292 52.3317 53.1152 52.6032C52.7013 52.8746 52.374 53.2614 52.1732 53.7168L52.0625 62.9267V62.9277Z" stroke="#A7A9AD" stroke-width="0.8" stroke-miterlimit="2.613"/>
<path fill-rule="evenodd" clip-rule="evenodd" d="M64.3848 41.5708L72.7124 41.4794V36.645C72.6924 33.8387 69.859 33.3309 69.689 36.645V37.6545H67.269V36.5373C67.1564 34.0053 64.7698 33.3157 64.4542 36.5373L64.3898 41.5718L64.3848 41.5708Z" stroke="#A7A9AD" stroke-width="0.8" stroke-miterlimit="2.613"/>
<path d="M98.2793 30.0086H101.709H98.2793ZM64.4297 41.5626V31.8541C64.5 26.5626 72.7173 26.7017 72.68 31.8541V41.5626H64.4297ZM64.5624 32.0399H72.5713H64.5624ZM81.3726 36.0822V31.8164H80.7046L80.6806 29.1982L81.5913 29.2316C81.678 28.7449 81.9306 28.3043 82.306 27.9869C82.682 27.6696 83.1553 27.4957 83.6453 27.4957C84.1346 27.4957 84.6086 27.6696 84.984 27.9869C85.3593 28.3043 85.6126 28.7449 85.6986 29.2316H86.698V31.8164H86.0333V36.0822H81.3726ZM97.6906 36.0822V31.8164H97.0253L97.0033 29.1982L97.9079 29.2316C97.9939 28.7441 98.2466 28.3025 98.6226 27.9844C98.998 27.6663 99.4726 27.4919 99.9633 27.4919C100.453 27.4919 100.928 27.6663 101.303 27.9844C101.679 28.3025 101.932 28.7441 102.018 29.2316H103.017V31.8164H102.35V36.0822H97.6906ZM81.872 30.0086H85.3026H81.872Z" stroke="#A7A9AD" stroke-width="0.8" stroke-miterlimit="2.613"/>
<path fill-rule="evenodd" clip-rule="evenodd" d="M82.4433 35.2373H83.372V31.1392C83.2173 30.6587 82.7533 30.3388 82.4433 31.1392V35.2373Z" stroke="#A7A9AD" stroke-width="0.8" stroke-miterlimit="2.613"/>
<path fill-rule="evenodd" clip-rule="evenodd" d="M98.7127 35.2373H99.6433V31.1392C99.4867 30.6587 99.022 30.3388 98.7127 31.1392V35.2373Z" stroke="#A7A9AD" stroke-width="0.8" stroke-miterlimit="2.613"/>
<path fill-rule="evenodd" clip-rule="evenodd" d="M83.9531 35.2373H84.8825V31.1392C84.7271 30.6587 84.2631 30.3388 83.9531 31.1392V35.2373Z" stroke="#A7A9AD" stroke-width="0.8" stroke-miterlimit="2.613"/>
<path fill-rule="evenodd" clip-rule="evenodd" d="M100.229 35.2373H101.16V31.1392C101.005 30.6587 100.541 30.3388 100.231 31.1392V35.2373H100.229Z" stroke="#A7A9AD" stroke-width="0.8" stroke-miterlimit="2.613"/>
<path fill-rule="evenodd" clip-rule="evenodd" d="M48.8027 38.0566H50.1097V33.9584C50.0662 33.8177 49.9793 33.6948 49.8618 33.6074C49.7442 33.5201 49.6021 33.4731 49.4562 33.4731C49.3103 33.4731 49.1683 33.5201 49.0507 33.6074C48.9331 33.6948 48.8463 33.8177 48.8027 33.9584V38.0566Z" stroke="#A7A9AD" stroke-width="0.8" stroke-miterlimit="2.613"/>
<path fill-rule="evenodd" clip-rule="evenodd" d="M48.3027 59.2965H49.4489V55.7011C49.4092 55.5792 49.3325 55.4731 49.2295 55.3978C49.1267 55.3226 49.0028 55.282 48.8758 55.282C48.7487 55.282 48.6249 55.3226 48.5221 55.3978C48.4191 55.4731 48.3424 55.5792 48.3027 55.7011V59.2965Z" stroke="#A7A9AD" stroke-width="0.8" stroke-miterlimit="2.613"/>
<path d="M105.35 48.1319H111.648L108.368 46.2195L105.352 48.1319H105.35Z" stroke="#A7A9AD" stroke-width="0.8" stroke-miterlimit="2.613"/>
<path fill-rule="evenodd" clip-rule="evenodd" d="M89.6167 46.4081H94.1973C93.9953 45.9376 93.6727 45.5297 93.264 45.2263C92.8547 44.923 92.3727 44.7349 91.8673 44.6815C91.3727 44.7366 90.902 44.9264 90.5053 45.2304C90.1087 45.5344 89.8013 45.9415 89.6153 46.4081H89.6167Z" stroke="#A7A9AD" stroke-width="0.8" stroke-miterlimit="2.613"/>
<path fill-rule="evenodd" clip-rule="evenodd" d="M105.611 49.0385V55.3812H111.121V49.0385H105.611Z" stroke="#A7A9AD" stroke-width="0.8" stroke-miterlimit="2.613"/>
<path fill-rule="evenodd" clip-rule="evenodd" d="M107.488 54.2307H109.097V50.5571C109.008 50.4237 108.889 50.3143 108.748 50.2387C108.608 50.1631 108.452 50.1235 108.292 50.1235C108.134 50.1235 107.977 50.1631 107.837 50.2387C107.696 50.3143 107.577 50.4237 107.488 50.5571V54.2307Z" stroke="#A7A9AD" stroke-width="0.8" stroke-miterlimit="2.613"/>
<path d="M105.479 56.4436H111.228" stroke="#A7A9AD" stroke-width="0.8" stroke-miterlimit="2.613"/>
<path fill-rule="evenodd" clip-rule="evenodd" d="M123.846 48.1319H130.144L126.864 46.2195L123.848 48.1319H123.846Z" stroke="#A7A9AD" stroke-width="0.8" stroke-miterlimit="2.613"/>
<path fill-rule="evenodd" clip-rule="evenodd" d="M124.109 49.0386V55.3813H129.619V49.0386H124.109Z" stroke="#A7A9AD" stroke-width="0.8" stroke-miterlimit="2.613"/>
<path fill-rule="evenodd" clip-rule="evenodd" d="M125.984 54.2307H127.592V50.5571C127.504 50.4237 127.384 50.3143 127.244 50.2387C127.104 50.1631 126.948 50.1235 126.788 50.1235C126.63 50.1235 126.473 50.1631 126.332 50.2387C126.192 50.3143 126.072 50.4237 125.984 50.5571V54.2307Z" stroke="#A7A9AD" stroke-width="0.8" stroke-miterlimit="2.613"/>
<path d="M123.975 56.4437H129.725" stroke="#A7A9AD" stroke-width="0.8" stroke-miterlimit="2.613"/>
<path fill-rule="evenodd" clip-rule="evenodd" d="M132.049 48.1319H138.345L135.066 46.2195L132.05 48.1319H132.049Z" stroke="#A7A9AD" stroke-width="0.8" stroke-miterlimit="2.613"/>
<path fill-rule="evenodd" clip-rule="evenodd" d="M132.309 49.0386V55.3813H137.818V49.0386H132.309Z" stroke="#A7A9AD" stroke-width="0.8" stroke-miterlimit="2.613"/>
<path fill-rule="evenodd" clip-rule="evenodd" d="M134.184 54.2308H135.792V50.5572C135.704 50.4242 135.584 50.3153 135.444 50.2399C135.304 50.1646 135.147 50.1252 134.988 50.1252C134.83 50.1252 134.673 50.1646 134.533 50.2399C134.392 50.3153 134.273 50.4242 134.184 50.5572V54.2308Z" stroke="#A7A9AD" stroke-width="0.8" stroke-miterlimit="2.613"/>
<path d="M132.175 56.444H137.926H132.175ZM112.867 50.668H115.048V54.7083H112.867V50.668ZM112.867 54.7083H115.048V58.7505H112.867V54.7083ZM112.867 58.7505H115.048V62.7908H112.867V58.7505ZM115.048 50.669H117.229V54.7093H115.048V50.669ZM115.048 54.7093H117.229V58.7515H115.048V54.7093ZM115.048 58.7515H117.229V62.7918H115.048V58.7515ZM117.229 50.6701H119.409V54.7103H117.229V50.6701ZM117.229 54.7103H119.409V58.7526H117.229V54.7103ZM117.229 58.7526H119.409V62.7928H117.229V58.7526ZM119.409 50.6711H121.59V54.7113H119.411V50.6711H119.409ZM119.409 54.7113H121.59V58.7535H119.411V54.7113H119.409ZM119.409 58.7535H121.59V62.7938H119.411V58.7535H119.409Z" stroke="#A7A9AD" stroke-width="0.8" stroke-miterlimit="2.613"/>
<path fill-rule="evenodd" clip-rule="evenodd" d="M84.9158 41.3765V43.6019C83.8431 44.0375 84.4865 45.3691 84.7945 45.7651V48.8588L84.9785 49.6632V56.0892L84.3678 58.871L84.7331 60.1071L84.3678 61.0973V64.0021H85.7758V61.1583L85.2871 60.0411L85.6538 58.868L85.2245 56.209V49.7201L85.5265 48.8557C85.5265 47.8056 85.5171 46.8245 85.5131 45.7723C85.7051 45.6605 86.7038 44.1473 85.5265 43.5378V41.4375L84.9158 41.3745V41.3765Z" stroke="#A7A9AD" stroke-width="0.8" stroke-miterlimit="2.613"/>
<path fill-rule="evenodd" clip-rule="evenodd" d="M98.2283 41.3765V43.6019C97.1556 44.0375 97.799 45.3691 98.107 45.7651V48.8588L98.2876 49.6632V56.0892L97.6776 58.871L98.0443 60.1071L97.6776 61.0973V64.0021H99.085V61.1583L98.5983 60.0411L98.963 58.868L98.5356 56.209V49.7201L98.8376 48.8557C98.8376 47.8056 98.8283 46.8245 98.8243 45.7723C99.0163 45.6605 100.012 44.1473 98.8376 43.5378V41.4375L98.227 41.3745L98.2283 41.3765Z" stroke="#A7A9AD" stroke-width="0.8" stroke-miterlimit="2.613"/>
<path fill-rule="evenodd" clip-rule="evenodd" d="M87.4787 63.2568H96.2134V44.6532C95.7048 42.8616 90.2488 40.3875 87.3574 44.6532L87.4787 63.2568Z" stroke="#A7A9AD" stroke-width="0.8" stroke-miterlimit="2.613"/>
<path fill-rule="evenodd" clip-rule="evenodd" d="M89.7363 58.6204H91.4457V61.5251H89.7363V58.6204Z" stroke="#A7A9AD" stroke-width="0.8" stroke-miterlimit="2.613"/>
<path fill-rule="evenodd" clip-rule="evenodd" d="M89.7363 54.1707H91.4457V57.9407H89.7363V54.1707Z" stroke="#A7A9AD" stroke-width="0.8" stroke-miterlimit="2.613"/>
<path fill-rule="evenodd" clip-rule="evenodd" d="M89.7363 47.5588H91.4457V53.4303H89.7363V47.5588Z" stroke="#A7A9AD" stroke-width="0.8" stroke-miterlimit="2.613"/>
<path fill-rule="evenodd" clip-rule="evenodd" d="M92.4883 58.6204H94.1976V61.5251H92.4883V58.6204Z" stroke="#A7A9AD" stroke-width="0.8" stroke-miterlimit="2.613"/>
<path fill-rule="evenodd" clip-rule="evenodd" d="M92.4883 54.1707H94.1976V57.9407H92.4883V54.1707Z" stroke="#A7A9AD" stroke-width="0.8" stroke-miterlimit="2.613"/>
<path fill-rule="evenodd" clip-rule="evenodd" d="M92.4883 47.5588H94.1976V53.4303H92.4883V47.5588Z" stroke="#A7A9AD" stroke-width="0.8" stroke-miterlimit="2.613"/>
<path fill-rule="evenodd" clip-rule="evenodd" d="M88.391 11.0547V15.8922H93.1343L93.1723 11.0547H93.7083L92.7143 9.77803V9.11992L91.1456 7.57202L91.0696 0.954102H90.4569L90.3423 7.57202L88.8503 9.04267L88.8129 9.81662L87.627 11.0547H88.391Z" stroke="#A7A9AD" stroke-width="0.8" stroke-miterlimit="2.613"/>
</g>
<defs>
<clipPath id="clip0_5_913">
<rect width="148" height="66" fill="white" transform="translate(0 0.280518)"/>
</clipPath>
</defs>
</svg>
