<svg width="19" height="21" viewBox="0 0 19 21" fill="none" xmlns="http://www.w3.org/2000/svg">
<path d="M7.16878 12.5849C7.17508 12.0648 7.04633 11.5516 6.79439 11.0923C6.54245 10.633 6.1754 10.2425 5.72702 9.9566C5.27864 9.67073 4.76333 9.49871 4.2285 9.45637C3.69366 9.41403 3.15648 9.50273 2.66638 9.71431C2.17628 9.92589 1.74901 10.2536 1.42386 10.6672C1.09871 11.0807 0.886138 11.567 0.805698 12.0812C0.725259 12.5953 0.779535 13.1209 0.963533 13.6095C1.14753 14.0981 1.45534 14.5341 1.85865 14.8773C1.5126 15.1643 1.2338 15.5196 1.0409 15.9195C0.847999 16.3194 0.745439 16.7547 0.740082 17.1962L0.725403 19.522C0.724105 19.7276 0.807138 19.9254 0.956234 20.0717C1.10533 20.218 1.30828 20.301 1.52043 20.3023L3.12026 20.3124C3.33241 20.3138 3.53639 20.2334 3.68732 20.0889C3.83825 19.9445 3.92378 19.7478 3.92507 19.5422C3.92637 19.3366 3.84334 19.1389 3.69424 18.9925C3.54515 18.8462 3.3422 18.7632 3.13005 18.7619L2.33013 18.7568L2.33992 17.2063C2.34251 16.795 2.51356 16.4017 2.81542 16.1128C3.11728 15.8239 3.52524 15.6631 3.94954 15.6658C4.37384 15.6685 4.77973 15.8344 5.07793 16.1271C5.37612 16.4198 5.54218 16.8152 5.53959 17.2265L5.52491 19.5523C5.52361 19.7579 5.60664 19.9556 5.75574 20.102C5.90483 20.2483 6.10778 20.3313 6.31993 20.3326C6.53208 20.334 6.73606 20.2536 6.88699 20.1091C7.03792 19.9647 7.12345 19.768 7.12474 19.5624L7.13942 17.2366C7.13964 16.795 7.04258 16.3585 6.85474 15.9562C6.6669 15.5539 6.39261 15.1951 6.05022 14.9037C6.39626 14.6167 6.67506 14.2614 6.86796 13.8615C7.06086 13.4616 7.16342 13.0264 7.16878 12.5849ZM2.36928 12.5546C2.37121 12.2479 2.46693 11.9487 2.64433 11.6948C2.82174 11.441 3.07285 11.2438 3.36592 11.1283C3.65899 11.0128 3.98086 10.9841 4.29082 11.0459C4.60078 11.1077 4.88491 11.2571 5.10728 11.4754C5.32966 11.6937 5.48028 11.9709 5.54011 12.2721C5.59995 12.5733 5.5663 12.8848 5.44342 13.1674C5.32054 13.4499 5.11396 13.6908 4.84979 13.8595C4.58563 14.0282 4.27574 14.1172 3.95932 14.1152C3.53502 14.1126 3.12913 13.9466 2.83094 13.654C2.53274 13.3613 2.36668 12.9658 2.36928 12.5546Z" fill="#8B97AE"/>
<path d="M17.2484 14.9744C17.7439 14.5634 18.0979 14.0155 18.263 13.4039C18.428 12.7924 18.3963 12.1465 18.1721 11.5528C17.9478 10.9591 17.5417 10.4459 17.0082 10.082C16.4747 9.71808 15.8392 9.52086 15.187 9.51675C14.5347 9.51263 13.8968 9.70181 13.3588 10.0589C12.8207 10.4161 12.4082 10.9241 12.1764 11.5149C11.9447 12.1058 11.9048 12.7512 12.0622 13.3648C12.2195 13.9784 12.5666 14.5308 13.0568 14.9479C12.7108 15.2349 12.432 15.5903 12.2391 15.9902C12.0462 16.3901 11.9436 16.8253 11.9383 17.2668L11.9236 19.5927C11.9223 19.7983 12.0053 19.996 12.1544 20.1423C12.3035 20.2887 12.5065 20.3716 12.7186 20.373C12.9308 20.3743 13.1347 20.2939 13.2857 20.1495C13.4366 20.005 13.5221 19.8084 13.5234 19.6027L13.5381 17.2769C13.5407 16.8657 13.7117 16.4723 14.0136 16.1835C14.3155 15.8946 14.7234 15.7338 15.1477 15.7364C15.572 15.7391 15.9779 15.9051 16.2761 16.1977C16.5743 16.4904 16.7404 16.8859 16.7378 17.2971L16.728 18.8477L15.9281 18.8426C15.7159 18.8413 15.5119 18.9217 15.361 19.0661C15.2101 19.2106 15.1246 19.4072 15.1233 19.6128C15.122 19.8185 15.205 20.0162 15.3541 20.1625C15.5032 20.3089 15.7061 20.3918 15.9183 20.3932L17.5181 20.4033C17.7303 20.4046 17.9342 20.3242 18.0852 20.1798C18.2361 20.0353 18.3216 19.8387 18.3229 19.633L18.3376 17.3072C18.3378 16.8657 18.2408 16.4292 18.0529 16.0269C17.8651 15.6246 17.5908 15.2657 17.2484 14.9744ZM13.5675 12.6252C13.5694 12.3186 13.6651 12.0194 13.8425 11.7655C14.0199 11.5116 14.271 11.3144 14.5641 11.1989C14.8572 11.0834 15.179 11.0547 15.489 11.1165C15.799 11.1783 16.0831 11.3278 16.3055 11.5461C16.5278 11.7643 16.6785 12.0416 16.7383 12.3427C16.7981 12.6439 16.7645 12.9555 16.6416 13.238C16.5187 13.5206 16.3121 13.7615 16.048 13.9302C15.7838 14.0989 15.4739 14.1879 15.1575 14.1859C14.7332 14.1832 14.3273 14.0173 14.0291 13.7246C13.7309 13.4319 13.5649 13.0365 13.5675 12.6252Z" fill="#8B97AE"/>
<path d="M3.19856 7.90795C3.41071 7.90929 3.61469 7.82889 3.76562 7.68445C3.91655 7.54 4.00207 7.34334 4.00337 7.13772L4.03273 2.48604C4.03402 2.28042 4.11955 2.08376 4.27048 1.93931C4.42141 1.79486 4.62539 1.71447 4.83754 1.71581L12.8367 1.76629C13.0489 1.76763 13.2518 1.8506 13.4009 1.99694C13.55 2.14328 13.633 2.341 13.6317 2.54662L13.6219 4.09718C13.6209 4.19975 13.5988 4.30109 13.557 4.39532C13.5152 4.48954 13.4545 4.57479 13.3785 4.64612C13.2286 4.7884 13.027 4.86788 12.8171 4.86741L6.4178 4.82702C6.20565 4.82569 6.00167 4.90608 5.85074 5.05053C5.69981 5.19498 5.61429 5.39164 5.61299 5.59726C5.61169 5.80287 5.69472 6.0006 5.84382 6.14694C5.99292 6.29328 6.19586 6.37625 6.40801 6.37758L12.8074 6.41797C13.4438 6.42199 14.0557 6.1808 14.5085 5.74746C14.9613 5.31412 15.2179 4.72413 15.2218 4.10728L15.2316 2.55672C15.2355 1.93987 14.9864 1.34669 14.5391 0.907665C14.0918 0.468645 13.483 0.21975 12.8465 0.215733L4.84732 0.165247C4.21087 0.16123 3.59894 0.40242 3.14614 0.83576C2.69335 1.2691 2.43678 1.85909 2.43289 2.47594L2.40353 7.12762C2.40224 7.33324 2.48527 7.53097 2.63436 7.67731C2.78346 7.82365 2.98641 7.90661 3.19856 7.90795Z" fill="#8B97AE"/>
</svg>
