<svg width="22" height="20" viewBox="0 0 22 20" fill="none" xmlns="http://www.w3.org/2000/svg">
<path d="M2.93313 7.16517C3.08353 7.02241 3.26153 6.90983 3.45694 6.8339C3.65235 6.75797 3.86131 6.72017 4.07186 6.72268C4.49616 6.72536 4.90205 6.89129 5.20024 7.18397C5.49844 7.47665 5.6645 7.8721 5.66191 8.28334C5.66061 8.48895 5.74364 8.68668 5.89274 8.83302C6.04183 8.97936 6.24478 9.06233 6.45693 9.06367C6.66908 9.065 6.87306 8.98461 7.02399 8.84016C7.17492 8.69571 7.26044 8.49905 7.26174 8.29343C7.26196 7.85192 7.1649 7.41541 6.97706 7.01311C6.78922 6.61081 6.51493 6.25198 6.17253 5.96063C6.66801 5.54967 7.02201 5.00172 7.18709 4.39018C7.35218 3.77865 7.32047 3.13275 7.09621 2.53903C6.87195 1.9453 6.46586 1.43211 5.93234 1.06821C5.39882 0.704317 4.76337 0.507099 4.11111 0.502983C3.45886 0.498866 2.82096 0.688048 2.28289 1.04518C1.74482 1.40231 1.33229 1.91034 1.10055 2.50118C0.868817 3.09203 0.828956 3.73748 0.98631 4.35105C1.14366 4.96462 1.49071 5.51699 1.98096 5.93417C1.92468 5.98034 1.86044 6.0187 1.81215 6.06491C1.51329 6.35125 1.27559 6.69187 1.11263 7.06731C0.949668 7.44276 0.864638 7.84568 0.862398 8.25304C0.8611 8.45866 0.944132 8.65639 1.09323 8.80273C1.24232 8.94907 1.44527 9.03203 1.65742 9.03337C1.86957 9.03471 2.07355 8.95432 2.22448 8.80987C2.37541 8.66542 2.46094 8.46876 2.46223 8.26314C2.4623 8.05907 2.50394 7.85704 2.58474 7.66862C2.66555 7.48021 2.78394 7.30912 2.93313 7.16517ZM4.10121 2.071C4.41763 2.073 4.72637 2.16589 4.98839 2.33793C5.2504 2.50996 5.45393 2.75342 5.57323 3.03751C5.69253 3.32161 5.72224 3.63357 5.65861 3.93396C5.59499 4.23435 5.44087 4.50967 5.21576 4.72511C4.99065 4.94055 4.70466 5.08643 4.39394 5.1443C4.08323 5.20217 3.76175 5.16943 3.47016 5.05023C3.17856 4.93102 2.92996 4.73071 2.75578 4.47461C2.58159 4.21851 2.48966 3.91813 2.49159 3.61146C2.49419 3.20023 2.66523 2.8069 2.96709 2.51801C3.26896 2.22911 3.67691 2.06832 4.10121 2.071Z" fill="#8B97AE"/>
<path d="M8.06107 8.29849C8.05977 8.5041 8.1428 8.70183 8.2919 8.84817C8.44099 8.99451 8.64394 9.07748 8.85609 9.07881C9.06824 9.08015 9.27222 8.99976 9.42315 8.85531C9.57408 8.71086 9.6596 8.5142 9.6609 8.30858C9.6635 7.89735 9.83454 7.50402 10.1364 7.21513C10.4383 6.92624 10.8462 6.76544 11.2705 6.76812C11.6948 6.7708 12.1007 6.93673 12.3989 7.22941C12.6971 7.52209 12.8632 7.91754 12.8606 8.32878C12.8593 8.53439 12.9423 8.73212 13.0914 8.87846C13.2405 9.0248 13.4434 9.10777 13.6556 9.10911C13.8677 9.11045 14.0717 9.03005 14.2227 8.8856C14.3736 8.74116 14.4591 8.54449 14.4604 8.33887C14.4606 7.89736 14.3636 7.46085 14.1757 7.05855C13.9879 6.65625 13.7136 6.29742 13.3712 6.00607C13.8667 5.59511 14.2207 5.04716 14.3858 4.43562C14.5508 3.82409 14.5191 3.17819 14.2949 2.58447C14.0706 1.99074 13.6645 1.47755 13.131 1.11365C12.5975 0.749758 11.962 0.55254 11.3098 0.548423C10.6575 0.544307 10.0196 0.733488 9.48156 1.09062C8.94349 1.44775 8.53095 1.95578 8.29922 2.54662C8.06749 3.13747 8.02763 3.78292 8.18498 4.39649C8.34233 5.01006 8.68938 5.56243 9.17963 5.97961C8.83359 6.26662 8.55479 6.62196 8.36189 7.02186C8.16898 7.42176 8.06642 7.857 8.06107 8.29849ZM9.69026 3.6569C9.6922 3.35023 9.78792 3.05104 9.96532 2.79716C10.1427 2.54328 10.3938 2.34612 10.6869 2.2306C10.98 2.11509 11.3018 2.08642 11.6118 2.1482C11.9218 2.20999 12.2059 2.35947 12.4283 2.57773C12.6506 2.79599 12.8013 3.07323 12.8611 3.3744C12.9209 3.67557 12.8873 3.98714 12.7644 4.2697C12.6415 4.55227 12.4349 4.79314 12.1708 4.96185C11.9066 5.13057 11.5967 5.21956 11.2803 5.21756C10.856 5.21488 10.4501 5.04895 10.1519 4.75627C9.85373 4.46359 9.68766 4.06814 9.69026 3.6569Z" fill="#8B97AE"/>
<path d="M20.5701 6.05149C21.0655 5.64054 21.4195 5.09258 21.5846 4.48105C21.7497 3.86952 21.718 3.22362 21.4937 2.62989C21.2695 2.03617 20.8634 1.52298 20.3299 1.15908C19.7963 0.795184 19.1609 0.597965 18.5086 0.593849C17.8564 0.589732 17.2185 0.778914 16.6804 1.13605C16.1423 1.49318 15.7298 2.0012 15.4981 2.59205C15.2663 3.1829 15.2265 3.82835 15.3838 4.44191C15.5412 5.05548 15.8882 5.60786 16.3785 6.02504C16.3222 6.0712 16.258 6.10956 16.2097 6.15578C15.9108 6.44211 15.6731 6.78273 15.5102 7.15818C15.3472 7.53363 15.2622 7.93654 15.2599 8.34391C15.2586 8.54953 15.3417 8.74726 15.4907 8.8936C15.6398 9.03994 15.8428 9.1229 16.0549 9.12424C16.2671 9.12558 16.4711 9.04518 16.622 8.90074C16.7729 8.75629 16.8585 8.55963 16.8598 8.35401C16.8624 7.94277 17.0334 7.54945 17.3353 7.26055C17.6371 6.97166 18.0451 6.81087 18.4694 6.81355C18.8937 6.81622 19.2996 6.98215 19.5978 7.27483C19.896 7.56751 20.062 7.96297 20.0594 8.3742C20.0581 8.57982 20.1412 8.77755 20.2903 8.92389C20.4394 9.07023 20.6423 9.15319 20.8544 9.15453C21.0666 9.15587 21.2706 9.07547 21.4215 8.93103C21.5724 8.78658 21.658 8.58992 21.6593 8.3843C21.6595 7.94279 21.5624 7.50628 21.3746 7.10398C21.1867 6.70167 20.9125 6.34284 20.5701 6.05149ZM18.4987 2.16186C18.8152 2.16386 19.1239 2.25675 19.3859 2.42879C19.6479 2.60083 19.8514 2.84429 19.9707 3.12838C20.09 3.41247 20.1198 3.72444 20.0561 4.02483C19.9925 4.32522 19.8384 4.60054 19.6133 4.81598C19.3882 5.03141 19.1022 5.17729 18.7915 5.23516C18.4807 5.29303 18.1593 5.26029 17.8677 5.14109C17.5761 5.02189 17.3275 4.82157 17.1533 4.56547C16.9791 4.30938 16.8872 4.009 16.8891 3.70233C16.8917 3.29109 17.0628 2.89777 17.3646 2.60887C17.6665 2.31998 18.0744 2.15919 18.4987 2.16186Z" fill="#8B97AE"/>
<path d="M19.2105 16.122L6.74049 16.0433L6.98187 15.8199C7.13341 15.6749 7.21928 15.4774 7.22058 15.271C7.22189 15.0645 7.13852 14.866 6.98882 14.719C6.83913 14.5721 6.63536 14.4888 6.42235 14.4875C6.20935 14.4861 6.00455 14.5668 5.85301 14.7119L4.24348 16.2523C4.1702 16.3256 4.11256 16.4122 4.07389 16.5071C3.9927 16.6954 3.99137 16.9071 4.07018 17.0963C4.10764 17.1917 4.16418 17.279 4.23653 17.3532L5.82649 18.9139C5.90039 18.987 5.98849 19.0453 6.08571 19.0852C6.18294 19.1252 6.28736 19.1461 6.39295 19.1468C6.49854 19.1475 6.60322 19.1279 6.70094 19.0891C6.79866 19.0504 6.88749 18.9933 6.9623 18.9211C7.03773 18.8495 7.09777 18.7641 7.13898 18.6699C7.18018 18.5757 7.20173 18.4745 7.20238 18.3721C7.20302 18.2698 7.18275 18.1683 7.14274 18.0736C7.10273 17.9788 7.04377 17.8927 6.96925 17.8202L6.73071 17.5938L19.2007 17.6725C19.4128 17.6739 19.6168 17.5935 19.7677 17.449C19.9186 17.3046 20.0041 17.1079 20.0054 16.9023C20.0067 16.6967 19.9237 16.4989 19.7746 16.3526C19.6255 16.2063 19.4226 16.1233 19.2105 16.122Z" fill="#8B97AE"/>
<path d="M9.06257 13.1814C8.98714 13.253 8.92709 13.3384 8.88589 13.4326C8.84468 13.5268 8.82313 13.628 8.82249 13.7304C8.82184 13.8327 8.84211 13.9342 8.88212 14.0289C8.92214 14.1236 8.98111 14.2098 9.05563 14.2823C9.12953 14.3555 9.21764 14.4137 9.31487 14.4537C9.41209 14.4936 9.51652 14.5146 9.62212 14.5152C9.72772 14.5159 9.8324 14.4963 9.93013 14.4575C10.0279 14.4188 10.1167 14.3617 10.1915 14.2895L11.8011 12.749C11.8744 12.6757 11.9321 12.5892 11.9707 12.4942C12.0519 12.306 12.0533 12.0943 11.9744 11.905C11.937 11.8096 11.8804 11.7223 11.8081 11.6481L10.218 10.0875C10.0683 9.94053 9.86455 9.85722 9.65153 9.85588C9.43851 9.85453 9.23369 9.93526 9.08215 10.0803C8.9306 10.2253 8.84473 10.4228 8.84342 10.6293C8.84212 10.8357 8.92549 11.0343 9.0752 11.1812L9.31375 11.4075L3.24238 11.3692C3.03023 11.3679 2.82625 11.4483 2.67532 11.5927C2.52439 11.7372 2.43887 11.9338 2.43757 12.1395C2.43627 12.3451 2.51931 12.5428 2.6684 12.6891C2.8175 12.8355 3.02044 12.9184 3.2326 12.9198L9.30397 12.9581L9.06257 13.1814Z" fill="#8B97AE"/>
</svg>
