<svg width="22" height="21" viewBox="0 0 22 21" fill="none" xmlns="http://www.w3.org/2000/svg">
<path d="M17.0536 0.805867C16.2626 0.800875 15.4878 1.02334 14.8274 1.44513C14.167 1.86693 13.6506 2.4691 13.3434 3.17551C13.0362 3.88192 12.9521 4.66084 13.1016 5.41376C13.2512 6.16668 13.6278 6.85979 14.1837 7.40545C14.7396 7.9511 15.45 8.32479 16.2249 8.47926C16.9998 8.63373 17.8044 8.56204 18.5371 8.27326C19.2698 7.98447 19.8976 7.49157 20.3411 6.85687C20.7846 6.22217 21.0239 5.47419 21.0287 4.70751C21.034 3.67979 20.6184 2.69185 19.8732 1.96042C19.128 1.22898 18.114 0.813771 17.0536 0.805867ZM17.0145 7.00811C16.5398 7.00511 16.0767 6.86578 15.6837 6.60772C15.2907 6.34966 14.9854 5.98447 14.8064 5.55834C14.6275 5.1322 14.5829 4.66425 14.6784 4.21366C14.7738 3.76308 15.005 3.3501 15.3426 3.02694C15.6803 2.70378 16.1093 2.48497 16.5754 2.39816C17.0414 2.31136 17.5237 2.36046 17.961 2.53927C18.3984 2.71807 18.7713 3.01855 19.0326 3.40269C19.2939 3.78684 19.4318 4.23741 19.4289 4.69741C19.4243 5.31405 19.1675 5.90365 18.7149 6.33684C18.2622 6.77004 17.6507 7.01145 17.0145 7.00811Z" fill="#8B97AE"/>
<path d="M18.5944 10.1193C18.3823 10.118 18.1783 10.1984 18.0274 10.3428C17.8765 10.4873 17.791 10.6839 17.7897 10.8896L17.7407 18.6424C17.7392 18.8479 17.6537 19.0445 17.5028 19.1889C17.3519 19.3333 17.148 19.4137 16.936 19.4126L2.53831 19.3217C2.32617 19.3204 2.12323 19.2374 1.97415 19.0911C1.82506 18.9447 1.74203 18.747 1.74333 18.5414L1.83141 4.58635C1.83298 4.38082 1.91858 4.18431 2.06944 4.03992C2.22031 3.89553 2.42411 3.81505 2.63617 3.81612L10.6349 3.8666C10.847 3.86794 11.051 3.78754 11.2019 3.6431C11.3528 3.49865 11.4383 3.30199 11.4396 3.09637C11.4409 2.89075 11.3579 2.69302 11.2088 2.54668C11.0597 2.40034 10.8568 2.31738 10.6447 2.31604L2.64596 2.26556C2.00975 2.26222 1.39826 2.50363 0.945643 2.93682C0.493029 3.37002 0.236258 3.95961 0.231667 4.57625L0.143591 18.5313C0.140806 18.8368 0.20059 19.1399 0.319482 19.4229C0.438373 19.706 0.614009 19.9634 0.836218 20.1802C1.2844 20.6178 1.8925 20.8665 2.52852 20.8723L16.9262 20.9632C17.5624 20.9665 18.1739 20.7251 18.6265 20.2919C19.0791 19.8587 19.3359 19.2691 19.3405 18.6525L19.3894 10.8997C19.3907 10.694 19.3077 10.4963 19.1586 10.35C19.0095 10.2036 18.8066 10.1207 18.5944 10.1193Z" fill="#8B97AE"/>
</svg>
