<svg width="18" height="21" viewBox="0 0 18 21" fill="none" xmlns="http://www.w3.org/2000/svg">
<path d="M17.3654 9.65891L12.777 6.65275C12.394 4.3048 11.2672 2.13011 9.55265 0.429918C9.47875 0.356783 9.39065 0.298548 9.29343 0.258573C9.1962 0.218598 9.09178 0.197674 8.98619 0.197007C8.8806 0.196341 8.77592 0.215945 8.6782 0.25469C8.58048 0.293435 8.49165 0.350553 8.41684 0.422749C6.681 2.10116 5.52683 4.26145 5.11422 6.60439L0.488182 9.55239C0.377707 9.62192 0.286676 9.71684 0.223174 9.8287C0.159672 9.94056 0.125666 10.0659 0.124179 10.1936L0.104606 13.2947C0.103309 13.5003 0.186336 13.6981 0.335423 13.8444C0.48451 13.9907 0.687445 14.0737 0.899583 14.075L2.49932 14.0851C2.71146 14.0865 2.91543 14.0061 3.06635 13.8616C3.21727 13.7172 3.30279 13.5205 3.30409 13.3149C3.30538 13.1093 3.22236 12.9116 3.07327 12.7652C2.92418 12.6189 2.72125 12.5359 2.50911 12.5346L1.70924 12.5295L1.72128 10.6223L4.93382 8.57254L4.90383 13.325C4.90253 13.5306 4.98556 13.7284 5.13464 13.8747C5.28373 14.021 5.48666 14.104 5.6988 14.1053L12.0978 14.1457C12.3099 14.1471 12.5139 14.0667 12.6648 13.9222C12.8157 13.7778 12.9012 13.5811 12.9025 13.3755L12.9325 8.62302L16.1189 10.7132L16.1069 12.6204L15.307 12.6154C15.0949 12.614 14.8909 12.6944 14.74 12.8389C14.5891 12.9833 14.5036 13.18 14.5023 13.3856C14.501 13.5912 14.584 13.7889 14.7331 13.9353C14.8822 14.0816 15.0851 14.1646 15.2972 14.1659L16.897 14.176C17.1091 14.1773 17.3131 14.097 17.464 13.9525C17.6149 13.8081 17.7004 13.6114 17.7017 13.4058L17.7213 10.3047C17.7214 10.177 17.689 10.0512 17.6269 9.93854C17.5649 9.82589 17.475 9.72983 17.3654 9.65891ZM11.3077 12.5901L6.50846 12.5598L6.53459 8.41983C6.55393 6.09804 7.41786 3.85765 8.97422 2.09319C10.5082 3.87715 11.3438 6.12827 11.3338 8.45012L11.3077 12.5901Z" fill="#8B97AE"/>
<path d="M12.0888 15.6963C11.8766 15.6949 11.6726 15.7753 11.5217 15.9198C11.3708 16.0642 11.2852 16.2609 11.2839 16.4665C11.2826 16.6721 11.3657 16.8699 11.5148 17.0162C11.6639 17.1625 11.8668 17.2455 12.079 17.2468C12.5754 17.2497 13.0588 17.4018 13.4625 17.682C13.8662 17.9623 14.1703 18.357 14.333 18.8117L3.40608 18.7427C3.57443 18.2901 3.88351 17.8993 4.2907 17.6242C4.69789 17.349 5.18316 17.2031 5.67963 17.2065C5.89178 17.2078 6.09576 17.1274 6.24669 16.9829C6.39762 16.8385 6.48315 16.6418 6.48444 16.4362C6.48574 16.2306 6.40271 16.0329 6.25361 15.8865C6.10452 15.7402 5.90157 15.6572 5.68942 15.6559C4.62866 15.6492 3.60877 16.0512 2.85412 16.7734C2.09946 17.4956 1.67186 18.479 1.66537 19.5071C1.66411 19.6091 1.68365 19.7104 1.72287 19.8051C1.76208 19.8998 1.82019 19.9861 1.89387 20.059C2.04627 20.2016 2.24862 20.2832 2.46039 20.2874L15.2591 20.3682C15.4712 20.3695 15.6752 20.2891 15.8261 20.1447C15.9771 20.0002 16.0626 19.8035 16.0639 19.5979C16.0704 18.5698 15.6552 17.5812 14.9097 16.8495C14.1642 16.1178 13.1495 15.703 12.0888 15.6963Z" fill="#8B97AE"/>
</svg>
