<svg width="19" height="21" viewBox="0 0 19 21" fill="none" xmlns="http://www.w3.org/2000/svg">
<path d="M4.40206 19.1519L2.00245 19.1368L2.09052 5.18172L17.2881 5.27764C17.5002 5.27898 17.7042 5.19858 17.8551 5.05413C18.006 4.90969 18.0915 4.71302 18.0928 4.50741C18.0941 4.30179 18.0111 4.10406 17.862 3.95772C17.7129 3.81138 17.51 3.72842 17.2978 3.72708L16.498 3.72203L16.5126 1.39619C16.5139 1.19057 16.4309 0.992843 16.2818 0.846503C16.1327 0.700163 15.9298 0.617198 15.7177 0.615859L2.91975 0.535086C2.70761 0.533747 2.50365 0.614144 2.35272 0.758591C2.2018 0.903037 2.11629 1.0997 2.11499 1.30532L2.10031 3.63116L1.30044 3.62611C1.0883 3.62477 0.884335 3.70517 0.733413 3.84961C0.58249 3.99406 0.496974 4.19072 0.495676 4.39634L0.397814 19.9019C0.396516 20.1076 0.479543 20.3053 0.62863 20.4516C0.777717 20.598 0.980652 20.6809 1.19279 20.6823L4.39227 20.7025C4.60441 20.7038 4.80837 20.6234 4.9593 20.479C5.11022 20.3345 5.19574 20.1379 5.19703 19.9322C5.19833 19.7266 5.1153 19.5289 4.96622 19.3825C4.81713 19.2362 4.6142 19.1532 4.40206 19.1519ZM3.70984 2.09069L14.908 2.16137L14.8982 3.71193L3.70005 3.64126L3.70984 2.09069Z" fill="#8B97AE"/>
<path d="M17.2789 6.8282C17.0667 6.82686 16.8627 6.90726 16.7118 7.05171C16.5609 7.19615 16.4754 7.39282 16.4741 7.59843L16.4007 19.2276L11.6012 19.1973L11.6256 15.3209C11.6269 15.1153 11.5439 14.9176 11.3948 14.7713C11.2457 14.6249 11.0428 14.542 10.8306 14.5406L7.63093 14.5204C7.41878 14.5191 7.2148 14.5995 7.06387 14.7439C6.91294 14.8884 6.82742 15.085 6.82612 15.2907L6.79676 19.9423C6.79546 20.1479 6.8785 20.3457 7.02759 20.492C7.17669 20.6384 7.37963 20.7213 7.59179 20.7227C7.80394 20.724 8.00791 20.6436 8.15885 20.4992C8.30978 20.3547 8.3953 20.158 8.3966 19.9524L8.42106 16.076L10.0209 16.0861L9.99643 19.9625C9.99513 20.1681 10.0782 20.3659 10.2273 20.5122C10.3764 20.6586 10.5793 20.7415 10.7915 20.7429L17.1908 20.7832C17.4029 20.7846 17.6069 20.7042 17.7579 20.5597C17.9088 20.4153 17.9943 20.2186 17.9956 20.013L18.0739 7.60853C18.0752 7.40291 17.9922 7.20519 17.8431 7.05885C17.694 6.91251 17.491 6.82954 17.2789 6.8282Z" fill="#8B97AE"/>
<path d="M14.0796 6.80801L4.48058 6.74743C4.26843 6.74609 4.06445 6.82648 3.91352 6.97093C3.76259 7.11538 3.67707 7.31204 3.67577 7.51766C3.67447 7.72327 3.75751 7.921 3.9066 8.06734C4.0557 8.21368 4.25864 8.29665 4.4708 8.29799L14.0698 8.35857C14.282 8.35991 14.4859 8.27951 14.6369 8.13506C14.7878 7.99062 14.8733 7.79395 14.8746 7.58834C14.8759 7.38272 14.7929 7.18499 14.6438 7.03865C14.4947 6.89231 14.2917 6.80935 14.0796 6.80801Z" fill="#8B97AE"/>
<path d="M14.06 9.90913L4.46099 9.84855C4.24884 9.84721 4.04486 9.9276 3.89393 10.0721C3.743 10.2165 3.65748 10.4132 3.65618 10.6188C3.65488 10.8244 3.73791 11.0221 3.88701 11.1685C4.03611 11.3148 4.23905 11.3978 4.4512 11.3991L14.0502 11.4597C14.2624 11.461 14.4663 11.3806 14.6173 11.2362C14.7682 11.0917 14.8537 10.8951 14.855 10.6895C14.8563 10.4838 14.7733 10.2861 14.6242 10.1398C14.4751 9.99343 14.2721 9.91047 14.06 9.90913Z" fill="#8B97AE"/>
</svg>
