<svg width="18" height="16" viewBox="0 0 18 16" fill="none" xmlns="http://www.w3.org/2000/svg">
<path d="M15.1 15.5702H2.4C1.1 15.5702 0 14.4702 0 13.1702V5.47019C0 4.17019 1.1 3.07019 2.4 3.07019C2.6 3.07019 2.7 2.97019 2.8 2.77019L3.2 1.67019C3.5 0.67019 4.5 0.0701904 5.5 0.0701904H12C13 0.0701904 13.9 0.67019 14.3 1.67019L14.7 2.77019C14.8 2.97019 14.9 3.07019 15.1 3.07019C16.4 3.07019 17.5 4.17019 17.5 5.47019V13.1702C17.5 14.4702 16.4 15.5702 15.1 15.5702ZM5.5 2.07019C5.3 2.07019 5.2 2.17019 5.1 2.37019L4.7 3.47019C4.4 4.47019 3.4 5.07019 2.4 5.07019C2.2 5.07019 2 5.27019 2 5.47019V13.1702C2 13.3702 2.2 13.5702 2.4 13.5702H15.1C15.3 13.5702 15.5 13.3702 15.5 13.1702V5.47019C15.5 5.27019 15.3 5.07019 15.1 5.07019C14.1 5.07019 13.2 4.47019 12.8 3.47019L12.4 2.37019C12.3 2.17019 12.2 2.07019 12 2.07019H5.5V2.07019Z" fill="#191919"/>
<path d="M8.8 12.0702C6.9 12.0702 5.3 10.4702 5.3 8.57019C5.3 6.67019 6.9 5.07019 8.8 5.07019C10.7 5.07019 12.3 6.67019 12.3 8.57019C12.3 10.4702 10.7 12.0702 8.8 12.0702ZM8.8 7.07019C8 7.07019 7.3 7.77019 7.3 8.57019C7.3 9.37019 8 10.0702 8.8 10.0702C9.6 10.0702 10.3 9.37019 10.3 8.57019C10.3 7.77019 9.6 7.07019 8.8 7.07019Z" fill="#191919"/>
</svg>
