<svg width="24" height="25" viewBox="0 0 24 25" fill="none" xmlns="http://www.w3.org/2000/svg">
<path d="M18.1 19.5702H5.4C4.1 19.5702 3 18.4702 3 17.1702V9.47019C3 8.17019 4.1 7.07019 5.4 7.07019C5.6 7.07019 5.7 6.97019 5.8 6.77019L6.2 5.67019C6.5 4.67019 7.5 4.07019 8.5 4.07019H15C16 4.07019 16.9 4.67019 17.3 5.67019L17.7 6.77019C17.8 6.97019 17.9 7.07019 18.1 7.07019C19.4 7.07019 20.5 8.17019 20.5 9.47019V17.1702C20.5 18.4702 19.4 19.5702 18.1 19.5702ZM8.5 6.07019C8.3 6.07019 8.2 6.17019 8.1 6.37019L7.7 7.47019C7.4 8.47019 6.4 9.07019 5.4 9.07019C5.2 9.07019 5 9.27019 5 9.47019V17.1702C5 17.3702 5.2 17.5702 5.4 17.5702H18.1C18.3 17.5702 18.5 17.3702 18.5 17.1702V9.47019C18.5 9.27019 18.3 9.07019 18.1 9.07019C17.1 9.07019 16.2 8.47019 15.8 7.47019L15.4 6.37019C15.3 6.17019 15.2 6.07019 15 6.07019H8.5Z" fill="#191919"/>
<path d="M11.8 16.0702C9.9 16.0702 8.3 14.4702 8.3 12.5702C8.3 10.6702 9.9 9.07019 11.8 9.07019C13.7 9.07019 15.3 10.6702 15.3 12.5702C15.3 14.4702 13.7 16.0702 11.8 16.0702ZM11.8 11.0702C11 11.0702 10.3 11.7702 10.3 12.5702C10.3 13.3702 11 14.0702 11.8 14.0702C12.6 14.0702 13.3 13.3702 13.3 12.5702C13.3 11.7702 12.6 11.0702 11.8 11.0702Z" fill="#191919"/>
</svg>
