<svg width="14" height="19" viewBox="0 0 14 19" fill="none" xmlns="http://www.w3.org/2000/svg">
<path d="M11.7008 2.57019C10.4008 1.27019 8.80078 0.57019 7.00078 0.57019C5.30078 0.57019 3.60078 1.27019 2.30078 2.57019C1.00078 3.87019 0.300781 5.47019 0.300781 7.27019C0.300781 9.57019 1.50077 11.6702 3.40077 12.8702C5.00077 13.8702 6.00078 15.4702 6.00078 17.1702V17.3702C6.00078 17.9702 6.40078 18.3702 7.00078 18.3702C7.60078 18.3702 8.00078 17.9702 8.00078 17.3702V17.1702C8.00078 15.4702 9.00078 13.8702 10.6008 12.8702C12.5008 11.6702 13.7008 9.57019 13.7008 7.27019C13.7008 5.57019 13.0008 3.87019 11.7008 2.57019ZM9.50078 11.2702C8.40078 11.9702 7.60078 12.7702 7.00078 13.7702C6.40078 12.7702 5.60078 11.8702 4.50078 11.2702C3.10078 10.3702 2.30078 8.97019 2.30078 7.37019C2.30078 6.17019 2.80078 4.97019 3.70078 4.07019C4.60078 3.17019 5.80078 2.67019 7.00078 2.67019C8.20078 2.67019 9.40078 3.17019 10.3008 4.07019C11.2008 4.97019 11.7008 6.17019 11.7008 7.37019C11.7008 8.87019 10.9008 10.3702 9.50078 11.2702Z" fill="#191919"/>
<path d="M7.00078 5.57019C6.10078 5.57019 5.30078 6.37019 5.30078 7.27019C5.30078 8.17019 6.10078 8.97019 7.00078 8.97019C7.90078 8.97019 8.70078 8.17019 8.70078 7.27019C8.70078 6.37019 7.90078 5.57019 7.00078 5.57019Z" fill="#191919"/>
</svg>
