<svg width="24" height="25" viewBox="0 0 24 25" fill="none" xmlns="http://www.w3.org/2000/svg">
<path d="M16.7008 5.57019C15.4008 4.27019 13.8008 3.57019 12.0008 3.57019C10.3008 3.57019 8.60078 4.27019 7.30078 5.57019C6.00078 6.87019 5.30078 8.47019 5.30078 10.2702C5.30078 12.5702 6.50077 14.6702 8.40077 15.8702C10.0008 16.8702 11.0008 18.4702 11.0008 20.1702V20.3702C11.0008 20.9702 11.4008 21.3702 12.0008 21.3702C12.6008 21.3702 13.0008 20.9702 13.0008 20.3702V20.1702C13.0008 18.4702 14.0008 16.8702 15.6008 15.8702C17.5008 14.6702 18.7008 12.5702 18.7008 10.2702C18.7008 8.57019 18.0008 6.87019 16.7008 5.57019ZM14.5008 14.2702C13.4008 14.9702 12.6008 15.7702 12.0008 16.7702C11.4008 15.7702 10.6008 14.8702 9.50078 14.2702C8.10078 13.3702 7.30078 11.9702 7.30078 10.3702C7.30078 9.17019 7.80078 7.97019 8.70078 7.07019C9.60078 6.17019 10.8008 5.67019 12.0008 5.67019C13.2008 5.67019 14.4008 6.17019 15.3008 7.07019C16.2008 7.97019 16.7008 9.17019 16.7008 10.3702C16.7008 11.8702 15.9008 13.3702 14.5008 14.2702Z" fill="#191919"/>
<path d="M12.0008 8.57019C11.1008 8.57019 10.3008 9.37019 10.3008 10.2702C10.3008 11.1702 11.1008 11.9702 12.0008 11.9702C12.9008 11.9702 13.7008 11.1702 13.7008 10.2702C13.7008 9.37019 12.9008 8.57019 12.0008 8.57019Z" fill="#191919"/>
</svg>
