<svg width="15" height="16" viewBox="0 0 15 16" fill="none" xmlns="http://www.w3.org/2000/svg">
<path d="M3.1 15.0701C2.7 15.0701 2.2 14.9701 1.8 14.7701C0.999999 14.2701 0.5 13.4701 0.5 12.5701V2.67009C0.5 1.77009 0.999999 0.870093 1.8 0.470093C2.6 -0.0299072 3.6 -0.0299072 4.4 0.470093L12.9 5.37009C13.7 5.87009 14.2 6.67009 14.2 7.57009C14.2 8.47009 13.7 9.37009 12.9 9.77009L4.4 14.6701C4 14.9701 3.5 15.0701 3.1 15.0701ZM3.1 2.07009C3 2.07009 2.9 2.07009 2.8 2.17009C2.7 2.27009 2.5 2.37009 2.5 2.67009V12.4701C2.5 12.7701 2.7 12.9701 2.8 12.9701C2.9 12.9701 3.1 13.0701 3.4 12.9701L11.9 8.07009C12.2 7.87009 12.2 7.67009 12.2 7.57009C12.2 7.47009 12.2 7.17009 11.9 7.07009L3.4 2.17009C3.3 2.07009 3.2 2.07009 3.1 2.07009Z" fill="#191919"/>
</svg>
