<svg width="24" height="25" viewBox="0 0 24 25" fill="none" xmlns="http://www.w3.org/2000/svg">
<path d="M8.1 20.0701C7.7 20.0701 7.2 19.9701 6.8 19.7701C6 19.2701 5.5 18.4701 5.5 17.5701V7.67009C5.5 6.77009 6 5.87009 6.8 5.47009C7.6 4.97009 8.6 4.97009 9.4 5.47009L17.9 10.3701C18.7 10.8701 19.2 11.6701 19.2 12.5701C19.2 13.4701 18.7 14.3701 17.9 14.7701L9.4 19.6701C9 19.9701 8.5 20.0701 8.1 20.0701ZM8.1 7.07009C8 7.07009 7.9 7.07009 7.8 7.17009C7.7 7.27009 7.5 7.37009 7.5 7.67009V17.4701C7.5 17.7701 7.7 17.9701 7.8 17.9701C7.9 17.9701 8.1 18.0701 8.4 17.9701L16.9 13.0701C17.2 12.8701 17.2 12.6701 17.2 12.5701C17.2 12.4701 17.2 12.1701 16.9 12.0701L8.4 7.17009C8.3 7.07009 8.2 7.07009 8.1 7.07009Z" fill="#191919"/>
</svg>
