<svg width="20" height="15" viewBox="0 0 20 15" fill="none" xmlns="http://www.w3.org/2000/svg">
<path d="M10.5 0.770093C9.8 0.370093 9 0.370093 8.4 0.770093L4.3 3.17009H1C0.4 3.17009 0 3.57009 0 4.17009V10.9701C0 11.5701 0.4 11.9701 1 11.9701H4.2L8.3 14.3701C8.6 14.5701 9 14.6701 9.4 14.6701C9.8 14.6701 10.1 14.5701 10.5 14.3701C11.2 13.9701 11.6 13.2701 11.6 12.5701V2.57009C11.5 1.87009 11.1 1.17009 10.5 0.770093ZM9.5 12.5701C9.5 12.5701 9.5 12.6701 9.4 12.6701C9.3 12.6701 9.3 12.6701 9.3 12.6701L5 10.0701C4.8 9.97009 4.7 9.97009 4.5 9.97009H2V5.17009H4.5C4.7 5.17009 4.8 5.17009 5 5.07009L9.4 2.57009H9.5V12.5701Z" fill="#191919"/>
<path d="M17.6 1.67012C17.2 1.27012 16.6 1.27012 16.2 1.67012C15.8 2.07012 15.8 2.67012 16.2 3.07012C18.6 5.47012 18.6 9.47012 16.2 11.8701C15.8 12.2701 15.8 12.8701 16.2 13.2701C16.4 13.4701 16.7 13.5701 16.9 13.5701C17.1 13.5701 17.4 13.4701 17.6 13.2701C20.8 10.1701 20.8 4.87012 17.6 1.67012Z" fill="#191919"/>
<path d="M13.1 4.77009C12.7 5.17009 12.7 5.77009 13.1 6.17009C13.8 6.87009 13.8 8.07009 13.1 8.87009C12.7 9.27009 12.7 9.87009 13.1 10.2701C13.3 10.4701 13.6 10.5701 13.8 10.5701C14 10.5701 14.3 10.4701 14.5 10.2701C16 8.77009 16 6.27009 14.5 4.77009C14.1 4.37009 13.5 4.37009 13.1 4.77009Z" fill="#191919"/>
</svg>
