<svg width="24" height="25" viewBox="0 0 24 25" fill="none" xmlns="http://www.w3.org/2000/svg">
<path d="M12.5 5.77009C11.8 5.37009 11 5.37009 10.4 5.77009L6.3 8.17009H3C2.4 8.17009 2 8.57009 2 9.17009V15.9701C2 16.5701 2.4 16.9701 3 16.9701H6.2L10.3 19.3701C10.6 19.5701 11 19.6701 11.4 19.6701C11.8 19.6701 12.1 19.5701 12.5 19.3701C13.2 18.9701 13.6 18.2701 13.6 17.5701V7.57009C13.5 6.87009 13.1 6.17009 12.5 5.77009ZM11.5 17.5701C11.5 17.5701 11.5 17.6701 11.4 17.6701C11.3 17.6701 11.3 17.6701 11.3 17.6701L7 15.0701C6.8 14.9701 6.7 14.9701 6.5 14.9701H4V10.1701H6.5C6.7 10.1701 6.8 10.1701 7 10.0701L11.4 7.57009H11.5V17.5701Z" fill="#191919"/>
<path d="M19.6 6.67012C19.2 6.27012 18.6 6.27012 18.2 6.67012C17.8 7.07012 17.8 7.67012 18.2 8.07012C20.6 10.4701 20.6 14.4701 18.2 16.8701C17.8 17.2701 17.8 17.8701 18.2 18.2701C18.4 18.4701 18.7 18.5701 18.9 18.5701C19.1 18.5701 19.4 18.4701 19.6 18.2701C22.8 15.1701 22.8 9.87012 19.6 6.67012Z" fill="#191919"/>
<path d="M15.1 9.77009C14.7 10.1701 14.7 10.7701 15.1 11.1701C15.8 11.8701 15.8 13.0701 15.1 13.8701C14.7 14.2701 14.7 14.8701 15.1 15.2701C15.3 15.4701 15.6 15.5701 15.8 15.5701C16 15.5701 16.3 15.4701 16.5 15.2701C18 13.7701 18 11.2701 16.5 9.77009C16.1 9.37009 15.5 9.37009 15.1 9.77009Z" fill="#191919"/>
</svg>
