<svg width="16" height="17" viewBox="0 0 16 17" fill="none" xmlns="http://www.w3.org/2000/svg">
<path d="M8 16.5702C3.55556 16.5702 0 13.0146 0 8.57019C0 4.12575 3.55556 0.57019 8 0.57019C12.4444 0.57019 16 4.12575 16 8.57019C16 13.0146 12.4444 16.5702 8 16.5702ZM8 2.34797C4.53333 2.34797 1.77778 5.10352 1.77778 8.57019C1.77778 12.0369 4.53333 14.7924 8 14.7924C11.4667 14.7924 14.2222 12.0369 14.2222 8.57019C14.2222 5.10352 11.4667 2.34797 8 2.34797Z" fill="#191919"/>
<path d="M7.99978 13.4589C7.46645 13.4589 7.11089 13.1033 7.11089 12.57V7.76999C7.11089 7.23666 7.46645 6.8811 7.99978 6.8811C8.53312 6.8811 8.88867 7.23666 8.88867 7.76999V12.57C8.88867 13.1033 8.53312 13.4589 7.99978 13.4589Z" fill="#191919"/>
<path d="M8 5.81461C7.46667 5.81461 7.11111 5.45905 7.11111 4.92572V4.57016C7.11111 4.03683 7.46667 3.68127 8 3.68127C8.53333 3.68127 8.88889 4.03683 8.88889 4.57016V4.92572C8.88889 5.45905 8.53333 5.81461 8 5.81461Z" fill="#191919"/>
</svg>
