<svg width="24" height="25" viewBox="0 0 24 25" fill="none" xmlns="http://www.w3.org/2000/svg">
<path d="M12 20.5702C7.55556 20.5702 4 17.0146 4 12.5702C4 8.12575 7.55556 4.57019 12 4.57019C16.4444 4.57019 20 8.12575 20 12.5702C20 17.0146 16.4444 20.5702 12 20.5702ZM12 6.34797C8.53333 6.34797 5.77778 9.10352 5.77778 12.5702C5.77778 16.0369 8.53333 18.7924 12 18.7924C15.4667 18.7924 18.2222 16.0369 18.2222 12.5702C18.2222 9.10352 15.4667 6.34797 12 6.34797Z" fill="#191919"/>
<path d="M11.9998 17.4589C11.4664 17.4589 11.1109 17.1033 11.1109 16.57V11.77C11.1109 11.2367 11.4664 10.8811 11.9998 10.8811C12.5331 10.8811 12.8887 11.2367 12.8887 11.77V16.57C12.8887 17.1033 12.5331 17.4589 11.9998 17.4589Z" fill="#191919"/>
<path d="M12 9.81461C11.4667 9.81461 11.1111 9.45905 11.1111 8.92572V8.57016C11.1111 8.03683 11.4667 7.68127 12 7.68127C12.5333 7.68127 12.8889 8.03683 12.8889 8.57016V8.92572C12.8889 9.45905 12.5333 9.81461 12 9.81461Z" fill="#191919"/>
</svg>
